<svg xmlns="http://www.w3.org/2000/svg" width="517" height="517.109" viewBox="0 0 517 517.109">
    <g data-name="about us">
        <path data-name="Path 303" d="M75 301a15 15 0 0 1-15-15V136a15 15 0 0 1 15-15h91a15 15 0 0 1 0 30H90v135a15 15 0 0 1-15 15zm0 0" style="fill:none;stroke:#fff;stroke-width:5px" transform="translate(2.5 2.609)"/>
        <path data-name="Path 304" d="M437 301a15 15 0 0 1-15-15V151h-76a15 15 0 0 1 0-30h91a15 15 0 0 1 15 15v150a15 15 0 0 1-15 15zm0 0" style="fill:none;stroke:#fff;stroke-width:5px" transform="translate(2.5 2.609)"/>
        <path data-name="Path 305" d="M256 301a15 15 0 0 1-15-15v-60a15 15 0 0 1 30 0v60a15 15 0 0 1-15 15zm0 0" style="fill:none;stroke:#fff;stroke-width:5px" transform="translate(2.5 2.609)"/>
        <path data-name="Path 306" d="M360.992 59.727c0-.145-.008-.289-.016-.437a14.121 14.121 0 0 0-.094-1.152c-.008-.051-.012-.1-.02-.145-.055-.4-.129-.8-.215-1.191l-.07-.312a15.56 15.56 0 0 0-.348-1.23v-.008c-.133-.4-.289-.793-.457-1.18l-.129-.3a14.132 14.132 0 0 0-.562-1.113c-.027-.055-.062-.109-.094-.164-.18-.309-.371-.609-.57-.9a15.055 15.055 0 0 0-.957-1.274c-.078-.094-.16-.18-.242-.27-.2-.23-.414-.453-.637-.672-.105-.105-.211-.211-.32-.316-.289-.27-.586-.531-.9-.781-.094-.074-.191-.145-.285-.215a20.507 20.507 0 0 0-.848-.6c-.094-.062-.184-.125-.281-.184-.039-.027-.078-.055-.117-.078-.336-.207-.68-.395-1.023-.57a.786.786 0 0 1-.1-.055l-90-45a15.017 15.017 0 0 0-13.418 0l-90 45a1 1 0 0 1-.094.055c-.348.176-.691.363-1.027.57-.039.023-.078.051-.117.078-.1.059-.187.121-.281.184-.289.191-.57.391-.848.6-.094.07-.191.141-.285.215-.312.25-.609.512-.9.781l-.324.316c-.219.219-.43.441-.633.672-.082.09-.164.176-.242.27a14.845 14.845 0 0 0-.957 1.274c-.2.293-.391.594-.57.9-.031.055-.066.105-.1.164-.2.359-.383.734-.559 1.113l-.129.3c-.168.387-.324.777-.457 1.18v.008c-.137.4-.246.816-.348 1.23l-.07.313c-.086.395-.16.789-.215 1.188-.008.051-.012.1-.02.152-.047.379-.078.766-.094 1.152-.008.145-.012.289-.016.438V181a15.007 15.007 0 0 0 8.293 13.418l90 45c.086.043.176.07.266.113.363.172.73.332 1.113.477.148.055.3.113.449.164.375.133.762.242 1.148.344.152.039.3.082.453.113.4.09.816.16 1.23.215.137.02.266.047.4.063a14.539 14.539 0 0 0 3.3 0c.133-.016.266-.043.4-.062.418-.055.828-.125 1.23-.215.152-.031.3-.074.453-.113.387-.1.773-.211 1.148-.344a13.608 13.608 0 0 0 1.562-.641c.09-.043.18-.07.27-.113l90-45A15.011 15.011 0 0 0 361 181V60c0-.09-.008-.184-.008-.273zM256 31.77l56.754 28.379L256 89.152l-56.754-29.007zm-75 52.742 60 30.668v86.55l-60-30zm150 87.215-60 30v-86.551l60-30.664zm0 0" style="fill:none;stroke:#fff;stroke-width:5px" transform="translate(2.5 2.609)"/>
        <g data-name="Group 25">
            <path data-name="Path 307" d="M75 391a60 60 0 1 1 60-60 60.068 60.068 0 0 1-60 60zm0-90a30 30 0 1 0 30 30 30.033 30.033 0 0 0-30-30zm0 0" style="fill:none;stroke:#fff;stroke-width:5px" transform="translate(2.5 2.609)"/>
            <path data-name="Path 308" d="M135 512H15a15 15 0 0 1-15-15v-30a76.034 76.034 0 0 1 21.848-53.414 73.836 73.836 0 0 1 106.3 0A76.034 76.034 0 0 1 150 467v30a15 15 0 0 1-15 15zM30 482h90v-15c0-24.937-20.605-46-45-46s-45 21.063-45 46zm0 0" style="fill:none;stroke:#fff;stroke-width:5px" transform="translate(2.5 2.609)"/>
            <path data-name="Path 309" d="M256 391a60 60 0 1 1 60-60 60.068 60.068 0 0 1-60 60zm0-90a30 30 0 1 0 30 30 30.033 30.033 0 0 0-30-30zm0 0" style="fill:none;stroke:#fff;stroke-width:5px" transform="translate(2.5 2.609)"/>
            <path data-name="Path 310" d="M316 512H196a15 15 0 0 1-15-15v-30a76.034 76.034 0 0 1 21.848-53.414 73.836 73.836 0 0 1 106.3 0A76.034 76.034 0 0 1 331 467v30a15 15 0 0 1-15 15zm-105-30h90v-15c0-24.937-20.605-46-45-46s-45 21.063-45 46zm0 0" style="fill:none;stroke:#fff;stroke-width:5px" transform="translate(2.5 2.609)"/>
            <path data-name="Path 311" d="M437 391a60 60 0 1 1 60-60 60.068 60.068 0 0 1-60 60zm0-90a30 30 0 1 0 30 30 30.033 30.033 0 0 0-30-30zm0 0" style="fill:none;stroke:#fff;stroke-width:5px" transform="translate(2.5 2.609)"/>
            <path data-name="Path 312" d="M497 512H377a15 15 0 0 1-15-15v-30a76.034 76.034 0 0 1 21.848-53.414 73.836 73.836 0 0 1 106.3 0A76.034 76.034 0 0 1 512 467v30a15 15 0 0 1-15 15zm-105-30h90v-15c0-24.937-20.605-46-45-46s-45 21.063-45 46zm0 0" style="fill:none;stroke:#fff;stroke-width:5px" transform="translate(2.5 2.609)"/>
        </g>
    </g>
</svg>
