<svg xmlns="http://www.w3.org/2000/svg" width="517" height="517" viewBox="0 0 517 517">
    <path data-name="Path 308" d="M173.211 353.789a15 15 0 0 1-10.605-25.605l42.117-42.117a15 15 0 0 1 21.211 21.211l-42.117 42.117a14.941 14.941 0 0 1-10.606 4.394zm0 0" style="fill:none;stroke:#fff;stroke-width:5px" transform="translate(2.5 2.5)"/>
    <path data-name="Path 309" d="M332 360c-99.254 0-180-80.746-180-180S232.746 0 332 0s180 80.746 180 180-80.746 180-180 180zm0-330c-82.711 0-150 67.289-150 150s67.289 150 150 150 150-67.289 150-150S414.711 30 332 30zm0 0" style="fill:none;stroke:#fff;stroke-width:5px" transform="translate(2.5 2.5)"/>
    <path data-name="Path 310" d="M436.992 119.727c0-.145-.008-.289-.016-.434-.02-.395-.047-.785-.1-1.176 0-.047-.012-.094-.02-.141q-.082-.592-.211-1.172l-.07-.312c-.1-.414-.211-.824-.348-1.227a.22.22 0 0 0-.016-.047 13.1 13.1 0 0 0-.445-1.145 13.689 13.689 0 0 0-.684-1.402c-.035-.066-.078-.129-.113-.191-.176-.3-.359-.594-.555-.883-.078-.113-.152-.227-.23-.336-.23-.316-.469-.629-.719-.926-.082-.1-.172-.191-.254-.285-.2-.23-.414-.453-.629-.668-.105-.1-.2-.207-.312-.3-.289-.27-.586-.531-.9-.781-.1-.078-.2-.152-.3-.227a11.872 11.872 0 0 0-.859-.609c-.082-.055-.16-.109-.246-.164a.979.979 0 0 1-.082-.055c-.352-.215-.707-.41-1.066-.594-.039-.02-.074-.043-.113-.062l-90-45a14.992 14.992 0 0 0-13.418 0l-90 45-.105.063c-.363.184-.723.379-1.07.594a.642.642 0 0 1-.086.055l-.246.164c-.293.191-.582.395-.859.609-.1.074-.2.148-.3.227-.312.25-.613.512-.9.781-.105.1-.207.2-.309.3a12.8 12.8 0 0 0-.629.668c-.086.094-.172.188-.254.285-.254.3-.492.609-.719.926-.078.113-.156.223-.23.336-.2.289-.383.582-.555.883-.039.063-.078.125-.113.191-.2.359-.387.73-.559 1.109l-.129.293c-.16.375-.312.758-.445 1.145a.22.22 0 0 1-.016.047 14.449 14.449 0 0 0-.414 1.54c-.086.387-.16.777-.215 1.172 0 .047-.012.094-.02.141-.047.391-.078.781-.1 1.176l-.012.434c0 .09-.008.184-.008.273V240a15 15 0 0 0 8.293 13.418l90 45c.086.043.176.07.266.113.363.172.73.332 1.113.477.148.059.3.113.449.168.375.129.762.238 1.148.34.152.039.3.082.453.117.4.09.816.156 1.23.215.137.016.266.043.4.059a13.962 13.962 0 0 0 3.3 0c.133-.016.266-.043.4-.059.418-.059.828-.125 1.23-.215.152-.035.3-.078.453-.117.387-.1.773-.211 1.148-.34.152-.055.3-.109.453-.168.379-.145.746-.3 1.109-.477.09-.043.18-.07.27-.113l90-45A15.007 15.007 0 0 0 437 240V120c0-.09-.008-.184-.008-.273zM332 91.77 388.461 120 332 148.23 275.539 120zm-75 52.5 60 30v86.46l-60-30zm150 86.46-60 30v-86.46l60-30zm0 0" style="fill:none;stroke:#fff;stroke-width:5px" transform="translate(2.5 2.5)"/>
    <path data-name="Path 311" d="M45 512a45 45 0 0 1-31.816-76.816l107-107a45 45 0 1 1 63.633 63.633l-107 107A44.707 44.707 0 0 1 45 512zm107-167a14.914 14.914 0 0 0-10.605 4.395l-107 107a15 15 0 1 0 21.211 21.211l107-107A15 15 0 0 0 152 345zm0 0" style="fill:none;stroke:#fff;stroke-width:5px" transform="translate(2.5 2.5)"/>
</svg>
