<svg xmlns="http://www.w3.org/2000/svg" width="517" height="517" viewBox="0 0 517 517">
    <g data-name="contact us">
        <path data-name="Path 303" d="M407 512a15 15 0 0 1-15-15v-31a15 15 0 0 1 30 0v31a15 15 0 0 1-15 15zm0 0" style="fill:none;stroke:#fff;stroke-width:5px" transform="translate(2.5 2.5)"/>
        <path data-name="Path 304" d="M497 301a15 15 0 0 1-15-15v-90a15.019 15.019 0 0 0-15-15h-30a15 15 0 0 1-15-15v-60a15 15 0 0 0-30 0v60a15 15 0 0 1-30 0v-60a45 45 0 0 1 90 0v45h15a45.052 45.052 0 0 1 45 45v90a15 15 0 0 1-15 15zm0 0" style="fill:none;stroke:#fff;stroke-width:5px" transform="translate(2.5 2.5)"/>
        <path data-name="Path 305" d="M317 512H15a15 15 0 0 1-15-15V45a15 15 0 0 1 15-15h91a15 15 0 0 1 0 30H30v422h272V60h-76a15 15 0 0 1 0-30h91a15 15 0 0 1 15 15v452a15 15 0 0 1-15 15zm0 0" style="fill:none;stroke:#fff;stroke-width:5px" transform="translate(2.5 2.5)"/>
        <path data-name="Path 306" d="M270.992 180.727c0-.145-.008-.289-.016-.434-.02-.395-.047-.785-.1-1.176 0-.047-.012-.094-.02-.137a14.51 14.51 0 0 0-.211-1.176l-.07-.312c-.1-.414-.211-.824-.348-1.227 0-.016-.012-.031-.016-.047-.129-.391-.281-.77-.445-1.148q-.059-.146-.129-.293a16.863 16.863 0 0 0-.555-1.109l-.117-.191c-.172-.3-.355-.59-.551-.879-.078-.113-.152-.227-.234-.34q-.34-.475-.715-.926c-.082-.1-.172-.191-.258-.289-.2-.227-.41-.445-.625-.66-.1-.1-.2-.207-.312-.309-.289-.27-.586-.531-.9-.781-.1-.078-.2-.152-.3-.227a14.307 14.307 0 0 0-.855-.605c-.082-.055-.164-.113-.25-.164l-.082-.059a17.158 17.158 0 0 0-1.066-.594c-.039-.02-.074-.043-.113-.062l-90-45a15.008 15.008 0 0 0-13.414 0l-90 45c-.039.02-.074.043-.109.063-.363.184-.719.379-1.07.594l-.082.059c-.086.051-.168.109-.25.164-.293.191-.578.395-.855.605-.1.074-.2.148-.3.227-.312.25-.609.512-.9.781-.109.1-.211.207-.312.309-.215.215-.422.434-.625.66-.086.1-.176.191-.258.289q-.375.451-.715.926c-.082.113-.156.227-.234.34-.2.289-.379.578-.551.879-.039.063-.082.125-.117.191-.2.363-.383.734-.555 1.109q-.07.146-.129.293a13.81 13.81 0 0 0-.445 1.148c0 .016-.012.031-.016.047-.137.4-.246.813-.348 1.227l-.07.313c-.086.387-.156.777-.211 1.176-.008.047-.016.09-.02.137a15.888 15.888 0 0 0-.116 1.61c0 .09-.008.184-.008.273V301a15 15 0 0 0 8.293 13.418l90 45c.086.043.18.074.27.113.363.172.727.332 1.105.477.152.055.3.113.461.168.371.125.75.238 1.137.336.152.039.3.086.461.117.4.09.8.156 1.219.215.137.016.273.047.41.063a14.668 14.668 0 0 0 1.613.09h.066a14.668 14.668 0 0 0 1.613-.09c.137-.016.273-.047.414-.062.41-.059.816-.125 1.215-.215.156-.035.309-.078.461-.117.387-.1.766-.207 1.141-.336.152-.055.3-.113.457-.172.379-.141.742-.3 1.105-.473.086-.043.18-.07.27-.117l90-45A15 15 0 0 0 271 301V181c0-.09-.008-.184-.008-.273zM166 152.77 222.461 181 166 209.23 109.539 181zm-75 52.5 60 30v86.46l-60-30zm150 86.46-60 30v-86.46l60-30zm0 0" style="fill:none;stroke:#fff;stroke-width:5px" transform="translate(2.5 2.5)"/>
        <path data-name="Path 307" d="M256 421H76a15 15 0 0 1 0-30h180a15 15 0 0 1 0 30zm0 0" style="fill:none;stroke:#fff;stroke-width:5px" transform="translate(2.5 2.5)"/>
        <path data-name="Path 308" d="M196 90h-60a45 45 0 0 1 0-90h60a45 45 0 0 1 0 90zm-60-60a15 15 0 0 0 0 30h60a15 15 0 0 0 0-30zm0 0" style="fill:none;stroke:#fff;stroke-width:5px" transform="translate(2.5 2.5)"/>
        <path data-name="Path 309" d="M407 481a14.993 14.993 0 0 1-13.414-8.293l-30-60A14.976 14.976 0 0 1 362 406V166a15 15 0 0 1 15-15h60a15 15 0 0 1 15 15v240a14.976 14.976 0 0 1-1.586 6.707l-30 60A14.993 14.993 0 0 1 407 481zm-15-78.539 15 30 15-30V181h-30zM437 406h.012zm0 0" style="fill:none;stroke:#fff;stroke-width:5px" transform="translate(2.5 2.5)"/>
    </g>
</svg>
