<svg xmlns="http://www.w3.org/2000/svg" width="516.999" height="516.001" viewBox="0 0 516.999 516.001">
    <g data-name="Group 25">
        <path data-name="Path 303" d="M352.473 277.238a74.367 74.367 0 0 1-52.937-21.926 14.972 14.972 0 0 1 21.172-21.176 44.922 44.922 0 0 0 63.527 0l84.7-84.7a44.972 44.972 0 0 0 0-63.523l-42.353-42.347a44.965 44.965 0 0 0-63.523 0l-84.7 84.7a44.965 44.965 0 0 0 0 63.523 14.974 14.974 0 0 1-21.176 21.176 74.954 74.954 0 0 1 0-105.875l84.7-84.7a74.95 74.95 0 0 1 105.875 0l42.348 42.348a74.947 74.947 0 0 1 0 105.875l-84.7 84.7a74.358 74.358 0 0 1-52.933 21.925zm0 0" style="fill:none;stroke:#fff;stroke-width:5px" transform="translate(2.5 2.001)"/>
        <path data-name="Path 304" d="M352.473 217.348a14.971 14.971 0 0 1-10.59-25.559L416 117.676 394.82 96.5l-74.113 74.109a14.971 14.971 0 0 1-21.172-21.172l84.7-84.7a14.969 14.969 0 0 1 21.172 0l42.352 42.348a14.971 14.971 0 0 1 0 21.176l-84.7 84.7a14.924 14.924 0 0 1-10.586 4.387zm0 0" style="fill:none;stroke:#fff;stroke-width:5px" transform="translate(2.5 2.001)"/>
        <path data-name="Path 305" d="M117.18 511.5a74.632 74.632 0 0 1-52.937-21.891l-42.352-42.351a74.954 74.954 0 0 1 0-105.875l84.7-84.7a74.864 74.864 0 0 1 105.871 0 14.974 14.974 0 0 1-21.176 21.176 44.918 44.918 0 0 0-63.523 0l-84.7 84.7a44.972 44.972 0 0 0 0 63.523l42.352 42.352a44.972 44.972 0 0 0 63.523 0l84.7-84.7a44.97 44.97 0 0 0 0-63.527 14.972 14.972 0 0 1 21.176-21.172 74.949 74.949 0 0 1 0 105.871l-84.7 84.7A74.633 74.633 0 0 1 117.18 511.5zm0 0" style="fill:none;stroke:#fff;stroke-width:5px" transform="translate(2.5 2.001)"/>
        <path data-name="Path 306" d="M117.18 451.645a14.912 14.912 0 0 1-10.586-4.387L64.242 404.91a14.971 14.971 0 0 1 0-21.176l84.7-84.7a14.972 14.972 0 0 1 21.176 21.172L96 394.32l21.18 21.18 74.113-74.113a14.972 14.972 0 1 1 21.172 21.176l-84.7 84.7a14.925 14.925 0 0 1-10.585 4.382zm0 0" style="fill:none;stroke:#fff;stroke-width:5px" transform="translate(2.5 2.001)"/>
    </g>
    <path data-name="Path 307" d="M180.715 375.7a44.9 44.9 0 0 1-31.773-76.664L299.57 149.4a44.918 44.918 0 0 1 63.488 63.559L212.43 362.594a44.714 44.714 0 0 1-31.715 13.106zM331.3 166.234a14.939 14.939 0 0 0-10.59 4.379L170.078 320.246a14.972 14.972 0 0 0 21.211 21.137l150.629-149.629a14.967 14.967 0 0 0-10.621-25.52zm0 0" style="fill:none;stroke:#fff;stroke-width:5px" transform="translate(2.5 2.001)"/>
</svg>
