<svg xmlns="http://www.w3.org/2000/svg" width="410.396" height="517" viewBox="0 0 410.396 517">
    <path data-name="Path 291" d="M375 181h-90a15 15 0 0 1-15-15V76a15 15 0 0 1 30 0v75h75a15 15 0 0 1 0 30zm0 0" style="fill:none;stroke:#fff;stroke-width:5px" transform="translate(2.5 2.5)"/>
    <path data-name="Path 292" d="M188.285 249.832a14.924 14.924 0 0 1-8.59-2.715L130.547 212.7a15 15 0 1 1 17.207-24.574l49.146 34.417a15 15 0 0 1-8.617 27.289zm0 0" style="fill:none;stroke:#fff;stroke-width:5px" transform="translate(2.5 2.5)"/>
    <path data-name="Path 293" d="M311.16 335.871a14.934 14.934 0 0 1-8.59-2.715l-49.148-34.414a15 15 0 0 1 17.207-24.578l49.148 34.418a15 15 0 0 1-8.617 27.289zm0 0" style="fill:none;stroke:#fff;stroke-width:5px" transform="translate(2.5 2.5)"/>
    <path data-name="Path 294" d="M75 451H15a15 15 0 0 1-15-15V15A15 15 0 0 1 15 0h330a15 15 0 0 1 15 15v121a15 15 0 0 1-30 0V30H30v391h45a15 15 0 0 1 0 30zm0 0" style="fill:none;stroke:#fff;stroke-width:5px" transform="translate(2.5 2.5)"/>
    <path data-name="Path 295" d="M375 343.938a15 15 0 0 1-15-15V172.215L278.785 91H90v49.016a15 15 0 0 1-30 0V76a15 15 0 0 1 15-15h210a15 15 0 0 1 10.605 4.395l90 90A15 15 0 0 1 390 166v162.938a15 15 0 0 1-15 15zm0 0" style="fill:none;stroke:#fff;stroke-width:5px" transform="translate(2.5 2.5)"/>
    <path data-name="Path 296" d="M375 512H75a15 15 0 0 1-15-15V192.121a15 15 0 0 1 30 0V482h270V381.453a15 15 0 0 1 30 0V497a15 15 0 0 1-15 15zm0 0" style="fill:none;stroke:#fff;stroke-width:5px" transform="translate(2.5 2.5)"/>
    <g data-name="Group 24">
        <path data-name="Path 297" d="M225 391h-90a15 15 0 0 1 0-30h90a15 15 0 0 1 0 30zm0 0" style="fill:none;stroke:#fff;stroke-width:5px" transform="translate(2.5 2.5)"/>
        <path data-name="Path 298" d="M165 331h-30a15 15 0 0 1 0-30h30a15 15 0 0 1 0 30zm0 0" style="fill:none;stroke:#fff;stroke-width:5px" transform="translate(2.5 2.5)"/>
        <path data-name="Path 299" d="M285 451H135a15 15 0 0 1 0-30h150a15 15 0 0 1 0 30zm0 0" style="fill:none;stroke:#fff;stroke-width:5px" transform="translate(2.5 2.5)"/>
    </g>
    <path data-name="Path 300" d="M114.512 228.2a44.73 44.73 0 0 1-25.746-8.125l-24.575-17.212a45 45 0 1 1 51.621-73.723l24.574 17.207a44.989 44.989 0 0 1-25.874 81.853zm-24.489-77.192a15 15 0 0 0-8.623 27.281l24.573 17.211a15 15 0 0 0 17.207-24.574l-24.575-17.211a14.931 14.931 0 0 0-8.582-2.707zm0 0" style="fill:none;stroke:#fff;stroke-width:5px" transform="translate(2.5 2.5)"/>
    <path data-name="Path 301" d="M237.355 314.258a44.669 44.669 0 0 1-25.715-8.148l-24.577-17.21a45 45 0 0 1 51.625-73.727l24.574 17.211a45 45 0 0 1-18 81.176 45.532 45.532 0 0 1-7.907.698zM212.9 237.043a15 15 0 0 0-8.625 27.285l24.574 17.207a15 15 0 0 0 17.207-24.574l-24.576-17.207a14.906 14.906 0 0 0-8.58-2.711zm0 0" style="fill:none;stroke:#fff;stroke-width:5px" transform="translate(2.5 2.5)"/>
    <path data-name="Path 302" d="M360.258 400.27a44.75 44.75 0 0 1-25.746-8.125l-24.574-17.207a45 45 0 0 1 51.621-73.723l24.574 17.207a44.989 44.989 0 0 1-25.875 81.848zm24.642-27.782h.008zm-49.119-49.418a15.077 15.077 0 0 0-12.32 6.4 15 15 0 0 0 3.684 20.887l24.574 17.211a15 15 0 0 0 17.207-24.578l-24.574-17.207a14.925 14.925 0 0 0-8.571-2.713zm0 0" style="fill:none;stroke:#fff;stroke-width:5px" transform="translate(2.5 2.5)"/>
</svg>
