<svg xmlns="http://www.w3.org/2000/svg" width="807.07" height="805.357" viewBox="0 0 807.07 805.357">
    <g data-name="texture 1" style="opacity:.1">
        <path data-name="Path 350" d="M244.809 5.469a40.836 40.836 0 0 1 40.834 0l224.392 129.555a40.832 40.832 0 0 1 20.417 35.362v259.105a40.837 40.837 0 0 1-20.417 35.364L285.643 594.408a40.836 40.836 0 0 1-40.834 0L20.417 464.854A40.832 40.832 0 0 1 0 429.491V170.386a40.838 40.838 0 0 1 20.417-35.364z" transform="rotate(-45.97 455.703 188.393)" style="opacity:.05;fill:none;stroke:#707070;stroke-width:5px"/>
        <path data-name="Path 351" d="M233.681 5.221a38.98 38.98 0 0 1 38.978 0l214.193 123.666a38.976 38.976 0 0 1 19.489 33.755v247.327a38.981 38.981 0 0 1-19.489 33.757L272.659 567.39a38.979 38.979 0 0 1-38.978 0L19.489 443.724A38.976 38.976 0 0 1 0 409.969V162.642a38.981 38.981 0 0 1 19.489-33.757z" transform="rotate(-48 459.041 175.63)" style="fill:none;stroke:#707070;stroke-width:5px;opacity:.1"/>
        <path data-name="Path 352" d="M222.554 4.972a37.123 37.123 0 0 1 37.122 0l203.992 117.777a37.12 37.12 0 0 1 18.561 32.151v235.55a37.125 37.125 0 0 1-18.561 32.15L259.676 540.371a37.124 37.124 0 0 1-37.122 0L18.561 422.594A37.12 37.12 0 0 1 0 390.447V154.9a37.125 37.125 0 0 1 18.561-32.149z" transform="rotate(-49.98 461.83 163.45)" style="opacity:.14;fill:none;stroke:#707070;stroke-width:5px"/>
        <path data-name="Path 353" d="M211.426 4.724a35.267 35.267 0 0 1 35.266 0l193.793 111.888a35.264 35.264 0 0 1 17.633 30.54v223.772a35.269 35.269 0 0 1-17.633 30.542L246.692 513.353a35.267 35.267 0 0 1-35.266 0L17.633 401.465A35.264 35.264 0 0 1 0 370.924V147.152a35.269 35.269 0 0 1 17.633-30.542z" transform="rotate(-52 463.55 151.994)" style="opacity:.19;fill:none;stroke:#707070;stroke-width:5px"/>
        <path data-name="Path 354" d="M200.3 4.475a33.411 33.411 0 0 1 33.41 0l183.593 106a33.408 33.408 0 0 1 16.7 28.933v212a33.413 33.413 0 0 1-16.7 28.935l-183.593 106a33.411 33.411 0 0 1-33.41 0L16.7 380.335A33.408 33.408 0 0 1 0 351.4v-212a33.413 33.413 0 0 1 16.7-28.935z" transform="rotate(-54 464.602 140.997)" style="opacity:.23;fill:none;stroke:#707070;stroke-width:5px"/>
        <path data-name="Path 355" d="M189.171 4.226a31.555 31.555 0 0 1 31.554 0l173.393 100.111a31.552 31.552 0 0 1 15.777 27.325V331.88a31.556 31.556 0 0 1-15.777 27.327L220.724 459.316a31.555 31.555 0 0 1-31.554 0L15.777 359.205A31.552 31.552 0 0 1 0 331.88V131.662a31.556 31.556 0 0 1 15.777-27.327z" transform="rotate(-56.01 464.9 130.565)" style="opacity:.28;fill:none;stroke:#707070;stroke-width:5px"/>
        <path data-name="Path 356" d="M178.043 3.978a29.7 29.7 0 0 1 29.7 0L370.935 98.2a29.7 29.7 0 0 1 14.849 25.718v188.44a29.7 29.7 0 0 1-14.849 25.72L207.74 432.3a29.7 29.7 0 0 1-29.7 0L14.849 338.076A29.7 29.7 0 0 1 0 312.357v-188.44A29.7 29.7 0 0 1 14.849 98.2z" transform="rotate(-58 464.718 120.39)" style="opacity:.32;fill:none;stroke:#707070;stroke-width:5px"/>
        <path data-name="Path 357" d="M166.915 3.729a27.843 27.843 0 0 1 27.841 0l152.995 88.333a27.84 27.84 0 0 1 13.921 24.111v176.662a27.844 27.844 0 0 1-13.921 24.112l-152.994 88.331a27.842 27.842 0 0 1-27.841 0L13.921 316.946A27.84 27.84 0 0 1 0 292.835V116.173A27.844 27.844 0 0 1 13.921 92.06z" transform="rotate(-60 463.81 110.727)" style="opacity:.37;fill:none;stroke:#707070;stroke-width:5px"/>
        <path data-name="Path 358" d="M155.788 3.481a25.986 25.986 0 0 1 25.985 0l142.795 82.443a25.984 25.984 0 0 1 12.993 22.5v164.889a25.988 25.988 0 0 1-12.993 22.5L181.773 378.26a25.986 25.986 0 0 1-25.985 0L12.993 295.816A25.984 25.984 0 0 1 0 273.313V108.428a25.988 25.988 0 0 1 12.993-22.5z" transform="rotate(-62 462.41 101.425)" style="opacity:.41;fill:none;stroke:#707070;stroke-width:5px"/>
        <path data-name="Path 359" d="M144.66 3.232a24.13 24.13 0 0 1 24.129 0l132.6 76.554a24.128 24.128 0 0 1 12.065 20.9V253.79a24.131 24.131 0 0 1-12.065 20.9l-132.6 76.554a24.13 24.13 0 0 1-24.129 0L12.06 274.69A24.128 24.128 0 0 1 0 253.79V100.683a24.131 24.131 0 0 1 12.065-20.9z" transform="rotate(-64 460.52 92.469)" style="opacity:.46;fill:none;stroke:#707070;stroke-width:5px"/>
        <path data-name="Path 360" d="M133.532 2.983a22.274 22.274 0 0 1 22.273 0L278.2 73.649a22.272 22.272 0 0 1 11.137 19.289v141.33a22.275 22.275 0 0 1-11.137 19.29l-122.4 70.665a22.274 22.274 0 0 1-22.273 0l-122.4-70.665A22.272 22.272 0 0 1 0 234.268V92.938a22.275 22.275 0 0 1 11.137-19.29z" transform="rotate(-66 458.174 83.83)" style="opacity:.5;fill:none;stroke:#707070;stroke-width:5px"/>
        <path data-name="Path 361" d="M122.4 2.735a20.418 20.418 0 0 1 20.417 0l112.2 64.776a20.416 20.416 0 0 1 10.209 17.681v129.554a20.419 20.419 0 0 1-10.209 17.682L142.822 297.2a20.418 20.418 0 0 1-20.417 0l-112.2-64.776A20.416 20.416 0 0 1 0 214.746V85.193a20.419 20.419 0 0 1 10.209-17.682z" transform="rotate(-67.98 455.57 75.43)" style="opacity:.55;fill:none;stroke:#707070;stroke-width:5px"/>
        <path data-name="Path 362" d="M111.277 2.486a18.562 18.562 0 0 1 18.561 0l102 58.887a18.56 18.56 0 0 1 9.28 16.074v117.776a18.563 18.563 0 0 1-9.28 16.075l-102 58.887a18.562 18.562 0 0 1-18.561 0L9.281 211.3A18.56 18.56 0 0 1 0 195.223V77.448a18.563 18.563 0 0 1 9.281-16.074z" transform="rotate(-70 452.062 67.444)" style="opacity:.59;fill:none;stroke:#707070;stroke-width:5px"/>
        <path data-name="Path 363" d="M100.149 2.238a16.706 16.706 0 0 1 16.7 0l91.8 53A16.7 16.7 0 0 1 217 69.7v106a16.706 16.706 0 0 1-8.352 14.467l-91.8 53a16.706 16.706 0 0 1-16.7 0l-91.8-53A16.7 16.7 0 0 1 0 175.7v-106a16.706 16.706 0 0 1 8.352-14.464z" transform="rotate(-72 448.695 59.65)" style="opacity:.64;fill:none;stroke:#707070;stroke-width:5px"/>
        <path data-name="Path 364" d="M89.021 1.989a14.849 14.849 0 0 1 14.849 0l81.6 47.11a14.848 14.848 0 0 1 7.424 12.859v94.22a14.85 14.85 0 0 1-7.424 12.86l-81.6 47.11a14.849 14.849 0 0 1-14.849 0l-81.6-47.11A14.848 14.848 0 0 1 0 156.179v-94.22A14.85 14.85 0 0 1 7.424 49.1z" transform="rotate(-73.98 444.97 52.083)" style="opacity:.68;fill:none;stroke:#707070;stroke-width:5px"/>
        <path data-name="Path 365" d="M77.894 1.74a12.993 12.993 0 0 1 12.993 0l71.4 41.221a12.992 12.992 0 0 1 6.5 11.252v82.443a12.994 12.994 0 0 1-6.5 11.252l-71.4 41.221a12.993 12.993 0 0 1-12.993 0L6.5 147.908A12.992 12.992 0 0 1 0 136.656V54.214a12.994 12.994 0 0 1 6.5-11.252z" transform="rotate(-76 440.588 44.812)" style="opacity:.73;fill:none;stroke:#707070;stroke-width:5px"/>
        <path data-name="Path 366" d="M66.766 1.492a11.137 11.137 0 0 1 11.137 0l61.2 35.333a11.136 11.136 0 0 1 5.568 9.644v70.665a11.138 11.138 0 0 1-5.568 9.645L77.9 162.111a11.137 11.137 0 0 1-11.137 0l-61.2-35.332A11.136 11.136 0 0 1 0 117.134V46.469a11.138 11.138 0 0 1 5.568-9.645z" transform="rotate(-78 436.117 37.753)" style="opacity:.77;fill:none;stroke:#707070;stroke-width:5px"/>
        <path data-name="Path 367" d="M55.638 1.243a9.281 9.281 0 0 1 9.28 0l51 29.444a9.28 9.28 0 0 1 4.64 8.037v58.888a9.281 9.281 0 0 1-4.64 8.037l-51 29.444a9.281 9.281 0 0 1-9.28 0l-51-29.444A9.28 9.28 0 0 1 0 97.612V38.724a9.281 9.281 0 0 1 4.64-8.037z" transform="rotate(-80 431.234 30.884)" style="opacity:.82;fill:none;stroke:#707070;stroke-width:5px"/>
        <path data-name="Path 368" d="M44.511.994a7.425 7.425 0 0 1 7.424 0l40.8 23.555a7.424 7.424 0 0 1 3.712 6.43v47.11a7.425 7.425 0 0 1-3.712 6.43l-40.8 23.555a7.425 7.425 0 0 1-7.424 0L3.712 84.519A7.424 7.424 0 0 1 0 78.089v-47.11a7.425 7.425 0 0 1 3.712-6.43z" transform="rotate(-82 426.125 24.236)" style="opacity:.86;fill:none;stroke:#707070;stroke-width:5px"/>
        <path data-name="Path 369" d="M33.383.746a5.568 5.568 0 0 1 5.568 0l30.6 17.666a5.568 5.568 0 0 1 2.784 4.822v35.333a5.569 5.569 0 0 1-2.784 4.822l-30.6 17.666a5.569 5.569 0 0 1-5.568 0L2.784 63.389A5.568 5.568 0 0 1 0 58.567V23.235a5.569 5.569 0 0 1 2.784-4.822z" transform="rotate(-84 420.749 17.789)" style="opacity:.91;fill:none;stroke:#707070;stroke-width:5px"/>
        <path data-name="Path 370" d="M22.255.5a3.712 3.712 0 0 1 3.712 0l20.4 11.777a3.712 3.712 0 0 1 1.856 3.215v23.553a3.712 3.712 0 0 1-1.856 3.215l-20.4 11.777a3.712 3.712 0 0 1-3.712 0L1.856 42.259A3.712 3.712 0 0 1 0 39.045V15.49a3.713 3.713 0 0 1 1.856-3.215z" transform="rotate(-86 415.114 11.533)" style="opacity:.95;fill:none;stroke:#707070;stroke-width:5px"/>
        <path data-name="Path 371" d="M11.128.249a1.856 1.856 0 0 1 1.856 0l10.2 5.889a1.856 1.856 0 0 1 .928 1.607v11.777a1.856 1.856 0 0 1-.928 1.607l-10.2 5.889a1.856 1.856 0 0 1-1.856 0L.928 21.13A1.856 1.856 0 0 1 0 19.522V7.745a1.856 1.856 0 0 1 .928-1.608z" transform="rotate(-88 409.23 5.462)" style="fill:none;stroke:#707070;stroke-width:5px"/>
    </g>
</svg>
