<svg xmlns="http://www.w3.org/2000/svg" width="520.215" height="527.624" viewBox="0 0 520.215 527.624">
    <g data-name="Group 40" style="opacity:.1">
        <path data-name="Path 411" d="M335.609 99.88a78.849 78.849 0 0 1 23.638 8.427c7.961 4.721 16.012 9.843 24.145 14.916a164.513 164.513 0 0 0 24.84 10.784 168.621 168.621 0 0 0 25.74 2.667c8.779-.417 17.673-.8 26.632-.835a127.543 127.543 0 0 1 27.041 3.535 123.391 123.391 0 0 1 26.272 12.69 179.242 179.242 0 0 1 23.5 21.281 202.426 202.426 0 0 1 18.2 25.839 142.275 142.275 0 0 1 10.579 26.166 92.27 92.27 0 0 1 1.947 24.1 104.385 104.385 0 0 1-5.343 21.772c-2.618 6.816-5.572 13.607-8.616 20.455a155.5 155.5 0 0 0-6.153 20.5 88.841 88.841 0 0 0 1.44 21.7 180.438 180.438 0 0 0 10.829 23.645c5.392 8.256 11.013 16.716 16.552 25.348a204.5 204.5 0 0 1 14.711 26.272 93.928 93.928 0 0 1 6.243 26.338 71.616 71.616 0 0 1-5.466 24.685 85.229 85.229 0 0 1-16.421 20.381 102.5 102.5 0 0 1-23.85 13.271 120.811 120.811 0 0 1-26.919 5.032c-8.967.376-17.812.164-26.444-.327a142.088 142.088 0 0 0-24.039 2.021 72.921 72.921 0 0 0-21.3 13.647 228.343 228.343 0 0 0-19.285 28.547c-6.1 11.627-12.224 23.278-18.409 34.143-6.055 9.458-12.257 16.626-18.622 20.839-6.325 1.309-12.862-.7-19.628-5.776-6.767-7-13.778-15.521-21.052-24.48-7.274-7.724-14.8-13.664-22.574-16.937-7.765.286-15.57 3.633-23.384 9.466-7.789 7.945-15.562 16.446-23.278 24.358-7.666 6.815-15.243 11.152-22.68 12.486-7.372-1.514-14.572-6.227-21.559-13.7a295.827 295.827 0 0 1-19.907-32.163c-6.251-11.594-12.191-22.533-17.8-32.335a148.617 148.617 0 0 0-15.423-19.8c-6.881-4.345-18.9-7.143-24.129-7.683-5.065-.941-14.327-7.6-18.671-13.729a136.3 136.3 0 0 1-8.877-17.346c-3.085-6.963-6.046-14.466-8.877-22.369a452.944 452.944 0 0 1-8.476-24.947c-2.708-8.542-5.114-17.117-7.143-25.634a237.243 237.243 0 0 1-4.541-25.3 159.626 159.626 0 0 1-.679-24.047 136.533 136.533 0 0 1 3.731-22.55 165.907 165.907 0 0 1 7.928-21.829c3.346-7.372 7.143-14.76 11.34-22.239 4.246-7.74 8.82-15.652 13.648-23.769q7.155-12.592 14.85-25.79a1517.974 1517.974 0 0 1 15.194-26.8c4.958-8.722 10-17.076 15.12-24.849a140.626 140.626 0 0 1 15.047-18.745 52.388 52.388 0 0 1 15.284-9.72 56.71 56.71 0 0 1 15.955-1.915c5.441 0 11.119.041 17.027-.18a91.706 91.706 0 0 0 18.36-5.752c6.341-3.886 12.944-8.476 19.792-13.508a186.263 186.263 0 0 1 21.251-14.824 55.058 55.058 0 0 1 22.7-5.433" transform="translate(-89.7 -84.591)" style="stroke-dasharray:7 5;opacity:.65;fill:none;stroke:#707070;stroke-linecap:round;stroke-width:2px"/>
        <path data-name="Path 412" d="M222.6 0a77.861 77.861 0 0 1 23.057 8.149c7.781 4.6 15.677 9.655 23.654 14.744a186.025 186.025 0 0 0 24.366 11.471 157.275 157.275 0 0 0 25.133 3.756c8.517-.18 17.092-.483 25.7-.614a138.319 138.319 0 0 1 25.61 2.037 102.124 102.124 0 0 1 24.275 9.857 127.057 127.057 0 0 1 21.044 18.4 150.121 150.121 0 0 1 15.652 24.055 132.113 132.113 0 0 1 8.46 25.912 110.306 110.306 0 0 1 .769 25.045 138.6 138.6 0 0 1-5.343 23.229c-2.389 7.323-5.016 14.572-7.675 21.789a178.675 178.675 0 0 0-4.975 21.355 101.925 101.925 0 0 0 2.054 21.944 186.533 186.533 0 0 0 10.473 23.245c5.089 8.018 10.375 16.118 15.578 24.284a222.329 222.329 0 0 1 14.032 24.415 89.311 89.311 0 0 1 6.562 23.564 54.2 54.2 0 0 1-3.985 20.962 58.231 58.231 0 0 1-14.253 16.168 84.5 84.5 0 0 1-21.7 9.614 144.546 144.546 0 0 1-25.4 3.363c-8.657.466-17.3.7-25.814 1.031a115.387 115.387 0 0 0-24.219 5.948A104.2 104.2 0 0 0 333.7 401.5a331.867 331.867 0 0 0-20.038 29.962c-6.341 11.217-12.657 22.059-18.974 31.8-6.186 8.157-12.453 13.975-18.827 16.953-6.308.3-12.78-2.365-19.416-7.707-6.619-6.922-13.435-15.079-20.447-23.49-7.02-7.167-14.237-12.649-21.641-15.7-7.413.2-14.826 3.2-22.206 8.493-7.372 7.331-14.695 15.292-21.936 22.893-7.2 6.824-14.294 11.553-21.232 13.664-6.881-.409-13.582-3.78-20.062-9.843a202.38 202.38 0 0 1-18.421-28.819c-5.776-11.177-11.267-22.157-16.429-32.425C89 398.175 84.233 390.394 79.807 384c-6.4-6.627-17.665-13.107-22.631-14.613-4.868-1.113-13.918-6.153-18.213-10.767a86.2 86.2 0 0 1-8.845-13.6 205.276 205.276 0 0 1-8.886-18.7c-3.019-6.987-5.858-14.343-8.485-21.969a288.84 288.84 0 0 1-7.159-23.564 212.706 212.706 0 0 1-4.622-24.07A158.944 158.944 0 0 1 .123 233.1a147.345 147.345 0 0 1 3.486-22.819 188.01 188.01 0 0 1 7.609-22.689q4.86-11.561 11.013-23.409 6.247-12.162 13.386-24.808 7.069-12.9 14.7-26.06c4.942-8.747 10.007-17.378 15.161-25.749 4.975-8.043 10.031-15.57 15.161-22.4a105.09 105.09 0 0 1 15.071-15.6 48.828 48.828 0 0 1 15.2-7.184 75.938 75.938 0 0 1 15.718-1.006c5.318-.09 10.841-.295 16.585-.884a95.876 95.876 0 0 0 17.755-6.922c6.12-4.156 12.486-8.9 19.1-13.967a163.2 163.2 0 0 1 20.52-14.458A53.5 53.5 0 0 1 222.59 0" transform="rotate(4.04 -95.853 632.567)" style="opacity:.32;stroke-dasharray:5 1;fill:none;stroke:#707070;stroke-linecap:round;stroke-width:2px"/>
        <path data-name="Path 413" d="M218.217 0a76.863 76.863 0 0 1 22.443 7.846c7.585 4.476 15.276 9.442 23.057 14.515a213.433 213.433 0 0 0 23.711 12.06 149.374 149.374 0 0 0 24.284 4.893c8.166.131 16.348.008 24.489-.1a159.161 159.161 0 0 1 23.949.957 87.415 87.415 0 0 1 22.132 7.3 91.122 91.122 0 0 1 18.606 15.317 112.323 112.323 0 0 1 13.271 21.649 120.692 120.692 0 0 1 6.6 24.8 127.544 127.544 0 0 1-.131 25.184 181.4 181.4 0 0 1-5.155 24.1c-2.135 7.724-4.426 15.325-6.7 22.844a198.833 198.833 0 0 0-3.87 22.124 115.327 115.327 0 0 0 2.6 22.157 187.864 187.864 0 0 0 10.1 22.787c4.795 7.732 9.745 15.423 14.629 23.032a251.1 251.1 0 0 1 13.328 22.353 84.347 84.347 0 0 1 6.783 20.651 40.345 40.345 0 0 1-2.667 17.46 40.939 40.939 0 0 1-12.2 12.674 76.289 76.289 0 0 1-19.53 7.192 201.455 201.455 0 0 1-23.695 3.15c-8.247.965-16.577 2.021-24.873 3.453a118.049 118.049 0 0 0-24.039 10.047 151.659 151.659 0 0 0-22.3 21.224c-7 9.491-13.852 19.768-20.586 30.4-6.529 10.563-13 20.422-19.44 28.94-6.308 6.832-12.641 11.348-19.031 13.189-6.316-.573-12.739-3.78-19.268-9.311-6.5-6.775-13.148-14.531-19.931-22.394-6.783-6.627-13.713-11.684-20.79-14.515-7.069.131-14.114 2.8-21.093 7.577-6.963 6.717-13.86 14.138-20.643 21.379-6.758 6.742-13.386 11.741-19.841 14.5-6.406.573-12.633-1.571-18.63-6.259-5.932-6.726-11.618-15.292-17.035-25.143-5.343-10.481-10.407-21.175-15.178-31.55-4.7-9.638-9.107-18.295-13.214-25.814A137.709 137.709 0 0 0 66.965 355.5c-5.212-3.952-14.695-8.82-19.072-11.078-4.508-2.577-13.3-11.062-17.616-17.182a133.868 133.868 0 0 1-8.894-15.513c-3.011-5.948-5.85-12.347-8.476-19.121a222.656 222.656 0 0 1-7.159-21.412 184.927 184.927 0 0 1-4.672-22.729 154.878 154.878 0 0 1-1-23.065A155.409 155.409 0 0 1 3.3 202.454a206.215 206.215 0 0 1 7.266-23.261c3.117-7.912 6.685-15.947 10.637-24.1q6.075-12.383 13.075-25.11a765.435 765.435 0 0 1 14.49-25.438c4.909-8.272 9.949-16.282 15.088-23.883a208.57 208.57 0 0 1 15.178-19.5 82.025 82.025 0 0 1 15.12-12.5 50.724 50.724 0 0 1 15.186-5.04 117.363 117.363 0 0 1 15.56-.552 134.336 134.336 0 0 0 16.274-1.816 106.82 106.82 0 0 0 17.28-8.076c5.94-4.377 12.109-9.237 18.516-14.31a146.246 146.246 0 0 1 19.876-14.024A52.335 52.335 0 0 1 218.209 0" transform="rotate(8.08 8.516 496.817)" style="opacity:.94;stroke-dasharray:9 6;fill:none;stroke:#707070;stroke-linecap:round;stroke-width:2px"/>
        <path data-name="Path 414" d="M214.026 0a75.1 75.1 0 0 1 21.78 7.536c7.364 4.328 14.818 9.18 22.353 14.212a249.481 249.481 0 0 0 22.869 12.543 146.675 146.675 0 0 0 23.2 6.046c7.74.491 15.448.646 23.065.663a197.932 197.932 0 0 1 22.108.335 78.312 78.312 0 0 1 19.923 5.089A65.858 65.858 0 0 1 385.561 58.7a82.186 82.186 0 0 1 11.086 18.8 107.6 107.6 0 0 1 5.04 22.909 141.513 141.513 0 0 1-.777 24.448 231.936 231.936 0 0 1-4.827 24.251c-1.857 7.9-3.813 15.693-5.711 23.368a221.453 221.453 0 0 0-2.815 22.574 130.4 130.4 0 0 0 3.068 22.189 187.566 187.566 0 0 0 9.728 22.181c4.508 7.4 9.147 14.637 13.713 21.674 4.721 7.012 8.984 13.778 12.608 20.242a81.563 81.563 0 0 1 6.906 17.935c.368 7.814-5.637 20.234-11.782 24.685a76.383 76.383 0 0 1-17.379 6.1c-6.865 1.579-14.2 2.913-21.838 4.181-7.765 1.792-15.685 3.911-23.662 6.586a142.325 142.325 0 0 0-23.513 13.977 223.758 223.758 0 0 0-22.313 23.8c-7.094 9.7-14.057 19.817-20.9 29.913a252.577 252.577 0 0 1-19.756 25.687c-6.406 5.531-12.788 8.82-19.187 9.63-6.316-1.326-12.69-4.966-19.121-10.579-6.406-6.578-12.895-13.909-19.473-21.232-6.57-6.1-13.238-10.735-20-13.361-6.758.065-13.451 2.414-20.046 6.709-6.595 6.128-13.083 12.993-19.44 19.841-6.333 6.57-12.518 11.733-18.524 15a22.226 22.226 0 0 1-17.288-3.011c-5.506-5.343-10.767-12.584-15.767-21.265-4.958-9.565-9.647-19.669-14.048-29.831-4.377-9.794-8.485-18.974-12.314-27.3-3.829-7.266-7.421-13.508-10.759-18.786a125.119 125.119 0 0 0-18.524-16.822 99.113 99.113 0 0 1-17.591-15.6 101.1 101.1 0 0 1-8.886-13.116 151.353 151.353 0 0 1-8.452-16.658 172.274 172.274 0 0 1-7.135-19.367 160.731 160.731 0 0 1-4.7-21.314 149.355 149.355 0 0 1-1.138-22.345 160.882 160.882 0 0 1 2.945-22.763 214.687 214.687 0 0 1 6.889-23.384q4.48-11.9 10.227-24.129 5.879-12.236 12.69-24.587a518.277 518.277 0 0 1 14.228-23.973c4.86-7.552 9.859-14.719 14.965-21.379A147.807 147.807 0 0 1 77.15 58.231a69.608 69.608 0 0 1 15.15-9.622 59.374 59.374 0 0 1 15.2-3.363c5.024-.376 10.187-.491 15.472-.54a112.905 112.905 0 0 0 16.053-2.921 124.92 124.92 0 0 0 16.92-9.18c5.793-4.557 11.8-9.491 18.025-14.539a134.742 134.742 0 0 1 19.315-13.533A51.653 51.653 0 0 1 214.018 0" transform="rotate(12.12 40.71 448.436)" style="stroke-dasharray:9 3;opacity:.31;fill:none;stroke:#707070;stroke-linecap:round;stroke-width:2px"/>
        <path data-name="Path 415" d="M209.787.008a72.777 72.777 0 0 1 21.06 7.2c7.11 4.165 14.286 8.886 21.527 13.844 7.249 4.656 14.548 9.033 21.87 12.919a148.874 148.874 0 0 0 21.928 7.159c7.257.9 14.433 1.391 21.469 1.636 6.938-.155 13.688-.172 20.152.139a73.807 73.807 0 0 1 17.722 3.355 48.051 48.051 0 0 1 14 9.417 59.123 59.123 0 0 1 9.148 15.723 92.746 92.746 0 0 1 3.737 20.418 148.114 148.114 0 0 1-1.186 22.9c-1.1 7.863-2.586 15.742-4.369 23.58-1.563 7.83-3.183 15.578-4.7 23.229-.974 7.609-1.62 15.128-1.841 22.541a141.866 141.866 0 0 0 3.477 21.911 184.773 184.773 0 0 0 9.327 21.4c4.23 7.036 8.566 13.8 12.821 20.275 4.418 6.447 8.436 12.559 11.888 18.295a81.05 81.05 0 0 1 6.938 15.644c.753 6.7-3.821 17.256-9.008 21.15a80.311 80.311 0 0 1-15.268 6.235c-6.186 2.021-12.854 4.034-19.9 6.2a223.011 223.011 0 0 0-22.214 10.022 190.6 190.6 0 0 0-22.68 17.436c-7.429 7.707-14.777 16.233-22.018 25.389-7.086 9.581-14.057 19.244-20.921 28.571a174.178 174.178 0 0 1-19.9 22.181c-6.447 4.279-12.854 6.447-19.228 6.333-6.308-1.947-12.625-5.907-18.958-11.528-6.308-6.325-12.649-13.214-19.031-19.988-6.374-5.588-12.8-9.835-19.277-12.265-6.472 0-12.837 2.062-19.08 5.9-6.243 5.547-12.355 11.856-18.311 18.27-5.948 6.341-11.725 11.569-17.313 15.21a20.77 20.77 0 0 1-16.078-.147c-5.114-4.017-10-9.917-14.629-17.346-4.606-8.468-8.967-17.738-13.067-27.377-4.1-9.614-7.945-18.941-11.545-27.729q-5.447-12.04-10.241-21.61c-3.281-5.416-6.374-10.08-9.311-14.13-4.533-4.778-13.279-12.617-17.558-16.5a147.121 147.121 0 0 1-17.739-20.449 120.664 120.664 0 0 1-8.4-14.785 131.317 131.317 0 0 1-11.79-37.522A141.3 141.3 0 0 1 .018 201.7a160.291 160.291 0 0 1 2.667-22.214 214.039 214.039 0 0 1 6.488-22.926q4.271-11.61 9.777-23.425a383.171 383.171 0 0 1 12.265-23.253c4.418-7.511 9.057-14.809 13.893-21.789a216.636 216.636 0 0 1 14.76-18.442 110.4 110.4 0 0 1 15.089-13.204 65.427 65.427 0 0 1 15.161-7.1 77.375 77.375 0 0 1 15.21-2.234c5.032-.344 10.17-.6 15.423-.925a105.581 105.581 0 0 0 15.9-4.165 153 153 0 0 0 16.634-10.178c5.67-4.688 11.537-9.647 17.608-14.629a124.809 124.809 0 0 1 18.775-12.994A50.981 50.981 0 0 1 209.779 0" transform="rotate(16.16 54.943 421.766)" style="stroke-dasharray:10 2;opacity:.58;fill:none;stroke:#707070;stroke-linecap:round;stroke-width:2px"/>
        <path data-name="Path 416" d="M205.232 0a70.936 70.936 0 0 1 20.283 6.856c6.824 3.993 13.688 8.558 20.586 13.418 6.906 4.647 13.819 9.1 20.725 13.173a157.33 157.33 0 0 0 20.52 8.215 183.821 183.821 0 0 0 19.743 2.757c6.316.065 12.4.131 18.172.36a72.924 72.924 0 0 1 15.578 2.127c6.5 2.733 16.29 12.559 19.391 19.563A75.811 75.811 0 0 1 362.947 84a147.774 147.774 0 0 1-1.375 20.684c-.99 7.3-2.291 14.7-3.8 22.132-1.268 7.495-2.545 14.973-3.723 22.369-.638 7.413-.982 14.736-.941 21.944a151.539 151.539 0 0 0 3.821 21.257 185.679 185.679 0 0 0 8.935 20.43c3.96 6.644 7.994 12.96 11.954 18.917 4.124 5.932 7.879 11.487 11.152 16.634 4.2 7.421 7.953 19.939 7.208 25.012-2.561 4.631-12.788 12.363-20.111 15.938-5.49 2.733-11.487 5.621-17.894 8.828a259.802 259.802 0 0 0-20.586 13.4 280.91 280.91 0 0 0-21.576 20.144c-7.184 8.19-14.327 16.912-21.412 25.97-6.971 9.18-13.868 18.139-20.668 26.51a124.442 124.442 0 0 1-19.817 18.548 32.793 32.793 0 0 1-19.138 3.363c-6.259-2.463-12.5-6.627-18.729-12.175-6.186-6.038-12.379-12.461-18.581-18.7-6.177-5.1-12.379-8.976-18.581-11.217a35.791 35.791 0 0 0-18.188 5.138 210.55 210.55 0 0 0-17.28 16.716 124.941 124.941 0 0 1-16.217 15.123c-5.2 2.659-10.211 3.453-15 2.307-4.77-2.774-9.319-7.364-13.631-13.492a219.435 219.435 0 0 1-12.232-24.366c-3.862-9.115-7.5-18.246-10.923-27.131-3.469-8.427-6.742-16.274-9.835-23.466-3.191-6.423-6.226-12.158-9.115-17.288a269.945 269.945 0 0 0-17.526-21.437 217.105 217.105 0 0 1-17.73-20.447 110.056 110.056 0 0 1-8.321-13.59 119.62 119.62 0 0 1-7-16.2 123.661 123.661 0 0 1-4.7-18.622A131.47 131.47 0 0 1 0 186.909a151.219 151.219 0 0 1 2.389-21.257 196.928 196.928 0 0 1 6.071-21.895 256.267 256.267 0 0 1 9.278-22.009 289.255 289.255 0 0 1 11.774-21.232c4.279-6.693 8.787-13.091 13.492-19.1a152.618 152.618 0 0 1 14.486-15.33 89.652 89.652 0 0 1 14.948-10.277 69.309 69.309 0 0 1 15.1-5.089 115.2 115.2 0 0 1 15.194-1.645c5.032-.466 10.154-.965 15.382-1.661a108.563 108.563 0 0 0 15.758-5.466 191.424 191.424 0 0 0 16.388-11.062c5.564-4.778 11.307-9.712 17.223-14.588a116.788 116.788 0 0 1 18.27-12.4A50.2 50.2 0 0 1 205.223 0" transform="rotate(20.2 62.058 404.109)" style="stroke-dasharray:9 2;opacity:.59;fill:none;stroke:#707070;stroke-linecap:round;stroke-width:2px"/>
        <path data-name="Path 417" d="M200.155 0a68.018 68.018 0 0 1 19.432 6.513c6.5 3.8 13.034 8.2 19.555 12.919 6.513 4.6 13.009 9.1 19.457 13.3a176.693 176.693 0 0 0 19 9.164 157.5 157.5 0 0 0 17.976 3.976c5.686.376 11.1.646 16.2.941 7.192.352 19.121 3.273 23.654 6.325 3.584 4.263 7.552 16.519 7.994 24.276a139.076 139.076 0 0 1-1.383 18.009c-.843 6.521-1.923 13.238-3.158 20.054-.974 6.93-1.923 13.9-2.766 20.848-.335 7-.4 13.95-.123 20.79a159.663 159.663 0 0 0 4.091 20.218 187.437 187.437 0 0 0 8.526 19.3c3.7 6.251 7.446 12.142 11.111 17.665 3.837 5.506 7.347 10.628 10.432 15.349 4.034 6.865 8.067 18.614 7.765 23.6-1.9 4.8-10.4 13.787-16.732 18.45-4.811 3.576-10.137 7.421-15.9 11.668a404.33 404.33 0 0 0-18.826 16.358q-9.941 10.1-20.234 21.944c-6.84 8.321-13.7 16.928-20.529 25.585-6.766 8.509-13.484 16.568-20.136 23.859a91.839 91.839 0 0 1-19.5 14.924 34.007 34.007 0 0 1-18.876.745 76.686 76.686 0 0 1-18.4-12.527c-6.063-5.711-12.093-11.667-18.1-17.387a64.485 64.485 0 0 0-17.918-10.211 35.489 35.489 0 0 0-17.362 4.426 168.622 168.622 0 0 0-16.339 15.161 162.5 162.5 0 0 1-15.243 14.793c-7.233 3.813-20.659 1.023-26.837-5.5a149.131 149.131 0 0 1-11.545-20.97C81.77 346.221 78.3 337.6 75.02 328.949c-3.346-8.46-6.529-16.593-9.548-24.268q-4.688-10.69-8.984-19.71a376.857 376.857 0 0 0-8.763-14.916c-4.459-6.022-13.3-16.969-17.665-22.378a138.079 138.079 0 0 1-8.8-11.332 117.161 117.161 0 0 1-8.215-13.058 113.026 113.026 0 0 1-6.889-15.235 115.119 115.119 0 0 1-4.656-17.46A121.531 121.531 0 0 1 0 171.5a140.045 140.045 0 0 1 2.111-19.956 171.379 171.379 0 0 1 5.629-20.34 205.533 205.533 0 0 1 8.755-20.029 211.269 211.269 0 0 1 11.234-18.734A171.459 171.459 0 0 1 40.738 76.29 114.8 114.8 0 0 1 54.86 63.984a80.481 80.481 0 0 1 14.711-7.756 82.335 82.335 0 0 1 14.981-3.658c4.966-.728 10.007-1.211 15.12-1.579 5.016-.7 10.113-1.555 15.3-2.676a121.742 121.742 0 0 0 15.628-6.757c5.253-3.494 10.628-7.462 16.143-11.8 5.466-4.8 11.087-9.687 16.863-14.417a109.662 109.662 0 0 1 17.755-11.756A49.78 49.78 0 0 1 200.147 0" transform="rotate(24.24 65.63 390.006)" style="opacity:.87;stroke-dasharray:9 1;fill:none;stroke:#707070;stroke-linecap:round;stroke-width:2px"/>
        <path data-name="Path 418" d="M194.33 0a64.925 64.925 0 0 1 18.516 6.153 201.014 201.014 0 0 1 18.434 12.371c6.1 4.516 12.15 9.008 18.115 13.3 5.94 3.756 11.758 7.1 17.428 9.982a146.856 146.856 0 0 0 16.208 5.228c7.462 1.039 20.561 2.226 26.019 3.06 8.059 3.9 14.539 16.045 14.8 22.337a125.978 125.978 0 0 1-1.227 15.12c-.663 5.621-1.505 11.5-2.463 17.542-.679 6.194-1.325 12.486-1.849 18.827-.057 6.406.131 12.813.614 19.162a166.465 166.465 0 0 0 4.3 18.851 193.721 193.721 0 0 0 8.12 18.067 398.948 398.948 0 0 0 10.293 16.544c3.551 5.171 6.816 10 9.7 14.482 3.854 6.57 8.051 18.254 8.125 23.523-1.334 5.31-8.256 16.061-13.656 21.952-4.156 4.418-8.828 9.172-13.934 14.335a954.746 954.746 0 0 0-16.994 18.606 1234.518 1234.518 0 0 0-18.729 22.754c-6.415 8.149-12.895 16.323-19.391 24.309a270.384 270.384 0 0 1-19.35 20.8 70.692 70.692 0 0 1-18.949 11.422 36.982 36.982 0 0 1-18.434-1.5 91.3 91.3 0 0 1-17.951-12.617c-5.9-5.335-11.758-10.825-17.567-16.028a64.548 64.548 0 0 0-17.256-9.254 35.57 35.57 0 0 0-16.568 3.764 138.179 138.179 0 0 0-15.5 13.631c-4.991 5.31-9.786 10.17-14.392 14.237-6.816 4.361-19.473 4.181-25.315-.54a99.551 99.551 0 0 1-11-17.37c-3.518-7.38-6.873-15.235-10.047-23.335a1526.4 1526.4 0 0 1-9.344-24.03q-4.627-11.218-8.918-21.216c-3-6.177-5.924-11.929-8.771-17.3-3-4.942-5.94-9.606-8.8-14.065-3.035-4.165-6-8.256-8.869-12.347a219.905 219.905 0 0 1-8.706-12.15 139.146 139.146 0 0 1-8.084-13.083A116.706 116.706 0 0 1 6.18 190.87a109.706 109.706 0 0 1-4.6-16.454A110.871 110.871 0 0 1 0 156.613a122.3 122.3 0 0 1 1.825-18.377A143.418 143.418 0 0 1 7 119.819a158.442 158.442 0 0 1 8.2-17.689 151.219 151.219 0 0 1 10.645-16A122.476 122.476 0 0 1 38.308 72.9a91.926 91.926 0 0 1 13.672-9.6 80.4 80.4 0 0 1 14.376-5.785 109.312 109.312 0 0 1 14.76-2.839c4.917-.728 9.908-1.35 14.965-1.98 4.983-1.047 10.031-2.307 15.161-3.886a141.57 141.57 0 0 0 15.448-8c5.187-3.772 10.481-7.928 15.881-12.355 5.359-4.786 10.849-9.557 16.47-14.114a104 104 0 0 1 17.215-11.07A49.249 49.249 0 0 1 194.321 0" transform="rotate(28.28 67.233 378.523)" style="stroke-dasharray:2 5;opacity:.79;fill:none;stroke:#707070;stroke-linecap:round;stroke-width:2px"/>
        <path data-name="Path 419" d="M187.612.006a61.6 61.6 0 0 1 17.534 5.784A165.38 165.38 0 0 1 222.4 17.564c5.678 4.394 11.267 8.836 16.74 13.165 5.441 3.9 10.735 7.47 15.848 10.653a156.328 156.328 0 0 0 27.041 9.344c9.72 1.579 19.6 6.357 21.159 9.532.949 4.009.941 14.719.2 21.249-.466 4.688-1.072 9.663-1.743 14.867-.4 5.351-.753 10.866-.99 16.487.188 5.711.6 11.463 1.26 17.223a174.534 174.534 0 0 0 4.459 17.256q3.473 8.554 7.691 16.773a481.268 481.268 0 0 0 9.516 15.578c3.273 4.926 6.292 9.581 8.976 13.975 3.649 6.513 7.92 18.638 8.288 24.44-.843 6-6.357 18.688-10.89 25.724-3.543 5.155-7.585 10.645-12.06 16.511a3211.8 3211.8 0 0 1-15.129 19.98 2757.63 2757.63 0 0 1-17.084 22.574c-5.932 7.667-11.97 15.161-18.058 22.28a172.96 172.96 0 0 1-18.324 17.483 56.567 56.567 0 0 1-18.172 8.149 41.25 41.25 0 0 1-17.8-3.33 107.858 107.858 0 0 1-17.37-12.461c-5.711-4.95-11.373-9.957-16.961-14.67A65.331 65.331 0 0 0 162.4 312a36.168 36.168 0 0 0-15.832 3.158 117.512 117.512 0 0 0-14.736 12.134c-4.729 4.885-9.278 9.483-13.639 13.484-6.464 4.7-18.483 6.693-24.055 3.616a65.2 65.2 0 0 1-10.563-13.746c-3.4-6.276-6.66-13.173-9.769-20.488-3.191-7.544-6.259-15.2-9.2-22.811-3.06-7.486-6.022-14.744-8.894-21.715q-4.5-9.978-8.779-18.933-4.516-8.432-8.82-16.069c-3.019-4.819-5.965-9.5-8.82-14.081-2.978-4.4-5.85-8.8-8.591-13.263a180.648 180.648 0 0 1-7.912-13.467 128.962 128.962 0 0 1-6.595-14.376 108.646 108.646 0 0 1-4.516-15.619A101.823 101.823 0 0 1 0 143.337a105.436 105.436 0 0 1 1.555-16.667 112.551 112.551 0 0 1 4.729-16.307 116.8 116.8 0 0 1 7.6-15.218 110.073 110.073 0 0 1 10.007-13.3A93.261 93.261 0 0 1 35.739 71.27a81.194 81.194 0 0 1 13.132-7.4 88.829 88.829 0 0 1 13.942-4.443c4.721-1.088 9.54-1.939 14.425-2.618 4.836-.884 9.745-1.784 14.719-2.774a160.977 160.977 0 0 0 14.932-5.2 173.277 173.277 0 0 0 15.2-9.123c5.1-3.985 10.285-8.264 15.562-12.723 5.236-4.7 10.587-9.327 16.028-13.68a98.727 98.727 0 0 1 16.626-10.35A48.424 48.424 0 0 1 187.6.006" transform="rotate(32.32 67.7 368.844)" style="stroke-dasharray:7 4;opacity:.17;fill:none;stroke:#707070;stroke-linecap:round;stroke-width:2px"/>
        <path data-name="Path 420" d="M179.872.017a57.569 57.569 0 0 1 16.511 5.4 140.6 140.6 0 0 1 16.045 11.127c5.236 4.238 10.358 8.591 15.341 12.9 4.95 3.976 9.728 7.724 14.31 11.152A163.839 163.839 0 0 0 265.9 52.275c12.5 4.165 18.794 11.643 18.99 15.48-.057 4.508-.982 15.611-1.563 22.034-.131 4.5-.213 9.213-.188 14.081a206.02 206.02 0 0 0 1.825 15.145 184.836 184.836 0 0 0 4.557 15.562q3.338 7.806 7.257 15.48c2.954 5.114 5.9 10.039 8.755 14.777 3 4.746 5.785 9.319 8.264 13.729 3.428 6.6 7.683 19.449 8.28 25.871a56.749 56.749 0 0 1-2.037 13.664 113.927 113.927 0 0 1-6.423 15.439c-2.97 5.686-6.415 11.667-10.277 17.951-4.091 6.562-8.542 13.377-13.3 20.4a634.112 634.112 0 0 1-15.366 21.469c-5.408 6.955-10.948 13.574-16.585 19.686a116.5 116.5 0 0 1-17.125 14.106 47.475 47.475 0 0 1-17.2 5.171 47.054 47.054 0 0 1-16.994-4.77 127.372 127.372 0 0 1-16.658-12.077c-5.482-4.549-10.907-9.09-16.274-13.32a65.771 65.771 0 0 0-15.873-7.478 37.125 37.125 0 0 0-15.12 2.594 102.766 102.766 0 0 0-14.032 10.686c-4.508 4.451-8.837 8.73-12.977 12.576-6.161 4.868-17.665 8.567-23.016 6.93a42.573 42.573 0 0 1-10.22-10.255 156.069 156.069 0 0 1-9.573-17.264c-3.142-6.7-6.186-13.688-9.115-20.8a2179.992 2179.992 0 0 1-8.877-21.208q-4.5-10.174-8.8-19.645-4.492-9.094-8.8-17.452a4844.025 4844.025 0 0 0-8.738-15.529 614.866 614.866 0 0 1-8.427-14.376q-4.124-6.959-7.716-14.008a148.413 148.413 0 0 1-6.4-14.286 111.955 111.955 0 0 1-4.426-14.908A94.985 94.985 0 0 1 0 132.507a88.269 88.269 0 0 1 1.276-14.948 88.106 88.106 0 0 1 4.271-14.212 86.214 86.214 0 0 1 7-12.854c4.373-5.752 14.683-15.44 20.492-19.277 6.079-3.265 19.08-7.961 25.912-9.573 4.566-1.08 9.237-2.029 13.983-2.921 4.713-1.17 9.5-2.43 14.343-3.846a172.459 172.459 0 0 0 14.613-6.521q7.327-4.529 14.858-10.072c4.983-4.124 10.031-8.46 15.153-12.887 5.1-4.582 10.277-9.008 15.529-13.124a93.525 93.525 0 0 1 15.98-9.604 47.5 47.5 0 0 1 16.454-2.66" transform="rotate(36.39 67.496 359.79)" style="stroke-dasharray:5 0;opacity:.24;fill:none;stroke:#707070;stroke-linecap:round;stroke-width:2px"/>
        <path data-name="Path 421" d="M170.553.014a54.033 54.033 0 0 1 15.439 5.024 118.18 118.18 0 0 1 14.817 10.44c9.6 8.084 18.606 16.356 26.829 23.957 8 5.809 15.038 10.383 20.913 13.909 7.6 2.79 15.7 8.91 16.528 14.507a128.891 128.891 0 0 1-.393 17.706c.5 7.544 1.366 15.963 2.831 24.955q2 6.824 4.606 13.9a355.156 355.156 0 0 0 6.824 14.261c2.716 4.786 5.408 9.483 8.018 14.089 2.749 4.606 5.286 9.147 7.568 13.623a80.1 80.1 0 0 1 8.117 27.32c-.065 9.8-2.242 20.259-6.366 31.533a302.886 302.886 0 0 1-20.144 38.373 255.111 255.111 0 0 1-28.645 36.32c-10.407 8.247-21.1 12.944-31.828 13.386-10.71-2.643-21.371-8.812-31.844-17.321-5.212-4.14-10.383-8.215-15.5-11.987a66.639 66.639 0 0 0-15.137-6.676 38.622 38.622 0 0 0-14.417 2.095 91.591 91.591 0 0 0-13.369 9.295c-8.616 8.231-16.577 15.308-23.883 19.776-7.429 2.029-14.3-.033-20.619-5.875-6.57-8.509-12.723-19.579-18.475-32.081-6.153-13.173-12.036-26.436-17.632-39.208-6.066-12.235-11.883-23.72-17.341-34.472-5.8-10.236-11.1-20.079-15.7-29.684q-3.461-7.106-6.194-14.228a118.741 118.741 0 0 1-4.3-14.286c-1.285-7.135-1.669-20.889-.769-27.434a65.466 65.466 0 0 1 10.199-23.106 64.434 64.434 0 0 1 19.039-15.742A108.1 108.1 0 0 1 54.279 63.8c8.747-2.676 17.886-5.425 27.279-8.73a237.931 237.931 0 0 0 28.563-18.557c9.638-8.656 19.53-17.428 29.6-25.315a88.545 88.545 0 0 1 15.262-8.828A45.913 45.913 0 0 1 170.545.014" transform="rotate(40.38 66.23 352.504)" style="stroke-dasharray:4 10;opacity:.4;fill:none;stroke:#707070;stroke-linecap:round;stroke-width:2px"/>
        <path data-name="Path 422" d="M161.088 0c9.786 2.144 19.138 7.225 27.95 14.359 8.747 7.707 16.855 15.824 24.153 23.548a1001.048 1001.048 0 0 0 18.369 15.889c6.627 3.936 13.828 10.571 14.826 15.358a88.679 88.679 0 0 1 .777 14.441 330.69 330.69 0 0 0 3.862 21.24c3.093 7.986 6.816 16.544 10.98 25.52 5.212 8.984 10.072 17.976 14.2 26.984a93.639 93.639 0 0 1 7.822 28.351 107.438 107.438 0 0 1-4.6 32.63 224.589 224.589 0 0 1-16.969 36.655 158.226 158.226 0 0 1-25.323 30.731c-9.4 6.145-19.178 9-29.1 8.133-9.949-3.281-19.931-9.393-29.782-17.264-9.835-7.061-19.53-13.034-29-16.585-9.458.565-18.278 4.091-26.444 9.606-8.223 7.347-15.857 14-22.9 18.671-7.184 2.921-13.868 2.414-20.079-1.448-6.447-6.259-12.543-15.145-18.278-25.765-6.1-11.61-11.954-23.81-17.534-35.943-5.981-12-11.7-23.523-17.051-34.421-5.629-10.547-10.759-20.619-15.194-30.24a159.416 159.416 0 0 1-10.1-27.778A74.107 74.107 0 0 1 .624 107.65a50.967 50.967 0 0 1 9.123-19.931 57.4 57.4 0 0 1 17.509-13.427 138.094 138.094 0 0 1 23.032-8.738c8.3-3.256 17.01-6.807 25.978-11.021a322.8 322.8 0 0 0 27.426-20.119c9.27-8.55 18.737-16.945 28.318-24.3C141.574 3.936 151.3.344 161.08 0" transform="rotate(44.44 65.286 344.016)" style="stroke-dasharray:1 0;opacity:.13;fill:none;stroke:#707070;stroke-linecap:round;stroke-width:2px"/>
        <path data-name="Path 423" d="M150.324 0c9.074 1.972 17.665 6.627 25.659 13.23a239.035 239.035 0 0 1 21.682 22.828c6.325 6.636 11.749 12.494 16.192 17.493 5.858 5.138 12.518 13.058 13.77 17.608a66.168 66.168 0 0 1 1.915 12.363 770.62 770.62 0 0 0 4.713 18.319c3.076 7.028 6.619 14.8 10.481 23.237a244.38 244.38 0 0 1 12.854 26.158 106.484 106.484 0 0 1 7.4 28.6 115.391 115.391 0 0 1-3.142 32.237 169.28 169.28 0 0 1-14.1 33.448c-6.5 9.99-13.95 18.516-22.067 24.808a39.26 39.26 0 0 1-26.239 3.657c-9.115-3.674-18.344-9.556-27.524-16.732-9.18-6.227-18.287-11.447-27.221-14.6a53.116 53.116 0 0 0-25.094 7.953c-7.838 6.456-15.169 12.543-21.985 17.2-6.946 3.5-13.467 4.206-19.571 2.045-6.318-4.208-12.34-10.942-18.047-19.541-6.022-9.753-11.815-20.447-17.338-31.476a1492.38 1492.38 0 0 1-16.65-32.81c-5.416-10.424-10.342-20.4-14.588-29.848a171.048 171.048 0 0 1-9.671-26.82 68.946 68.946 0 0 1-1.3-23.008 42.518 42.518 0 0 1 8.062-17.665 55.322 55.322 0 0 1 15.93-12.306A184.087 184.087 0 0 1 45.8 66.593c7.789-3.96 16-8.329 24.464-13.361 8.468-6.382 17.182-13.525 26.019-21.183a326.248 326.248 0 0 1 26.828-23.008c9.033-5.6 18.139-8.8 27.213-9.041" transform="rotate(48.48 63.924 336.388)" style="opacity:.51;stroke-dasharray:9 1;fill:none;stroke:#707070;stroke-linecap:round;stroke-width:2px"/>
        <path data-name="Path 424" d="M138.71 0c8.362 1.8 16.192 6.03 23.417 12.085a177.673 177.673 0 0 1 19.432 21.8c5.629 6.807 10.448 13.067 14.376 18.647 5.277 6.3 11.667 15.979 13.238 20.766a61.474 61.474 0 0 1 2.961 11.402c1.579 4.557 3.355 9.99 5.392 16.282a840.107 840.107 0 0 1 9.925 21.33 206.358 206.358 0 0 1 11.561 25.078 115.786 115.786 0 0 1 6.9 27.909 115.031 115.031 0 0 1-2 30.412 124.01 124.01 0 0 1-11.537 29.111c-5.474 8.092-11.88 14.6-18.974 18.958a36.145 36.145 0 0 1-23.335.049c-8.231-3.837-16.658-9.36-25.127-15.791-8.468-5.425-16.945-9.925-25.323-12.707a54.273 54.273 0 0 0-23.695 6.431c-7.462 5.556-14.49 11-21.077 15.439-6.7 3.788-13.042 5.367-19.031 4.566-6.194-2.438-12.109-7.192-17.755-13.787a237.6 237.6 0 0 1-17.01-26.248A715.7 715.7 0 0 1 24.93 181.86c-5.171-9.859-9.859-19.375-13.9-28.416a173.511 173.511 0 0 1-9.2-25.536 65.745 65.745 0 0 1-1.51-21.371 38.787 38.787 0 0 1 7.012-16.29A57.43 57.43 0 0 1 21.65 78.023c5.9-3.9 12.477-7.626 19.555-11.4 7.216-4.672 14.842-9.794 22.738-15.5 7.936-6.783 16.1-14.106 24.39-21.682a257.156 257.156 0 0 1 25.135-21.455C121.9 2.97 130.356.155 138.71 0" transform="rotate(52.52 62.412 328.962)" style="stroke-dasharray:0 5;opacity:.35;fill:none;stroke:#707070;stroke-linecap:round;stroke-width:2px"/>
        <path data-name="Path 425" d="M126.423 0a48.96 48.96 0 0 1 21.24 10.915 140.673 140.673 0 0 1 17.411 20.5 223.371 223.371 0 0 1 12.895 19.26c4.852 7.282 11.185 18.892 13.091 24.227 2.095 5.138 6.676 18.164 9.777 26.469a368.634 368.634 0 0 1 9.319 19.776 183.3 183.3 0 0 1 10.317 23.67 119.243 119.243 0 0 1 6.316 26.248 106.325 106.325 0 0 1-1.113 27.369 87.108 87.108 0 0 1-9.319 24.137c-4.549 6.218-9.974 10.857-16.094 13.517-6.341 1.236-13.222.335-20.471-2.651a178.24 178.24 0 0 1-22.656-14.515 109.138 109.138 0 0 0-23.336-10.937 56.533 56.533 0 0 0-22.239 5.056c-7.053 4.68-13.762 9.409-20.1 13.492-6.439 3.8-12.584 5.924-18.434 6.145-6.006-1.015-11.79-4.034-17.313-8.787a140.865 140.865 0 0 1-16.536-20.782c-5.466-8.386-10.653-17.149-15.456-25.953-4.9-8.91-9.327-17.665-13.14-26.06a166.2 166.2 0 0 1-8.681-23.883A64.938 64.938 0 0 1 .2 107.167a39.342 39.342 0 0 1 6.014-15.652A63.091 63.091 0 0 1 18.9 78.645c5.3-4.369 11.242-8.714 17.673-13.222 6.578-5.3 13.566-11.021 20.831-17.19 7.331-6.979 14.883-14.277 22.55-21.592a208.79 208.79 0 0 1 23.265-19.695c7.8-4.435 15.57-6.873 23.2-6.946" transform="rotate(56.56 60.804 321.673)" style="stroke-dasharray:9 4;opacity:.44;fill:none;stroke:#707070;stroke-linecap:round;stroke-width:2px"/>
        <path data-name="Path 426" d="M113.645 0a43.9 43.9 0 0 1 19.162 9.753 116.733 116.733 0 0 1 15.62 18.957 189.3 189.3 0 0 1 11.684 19.318 134.066 134.066 0 0 1 7.92 15.317 254.609 254.609 0 0 1 9.933 24.12c1.988 4.23 4.05 9.049 6.2 14.523 2.823 5.425 5.752 11.577 8.689 18.475a170.974 170.974 0 0 1 9.123 21.911 117.636 117.636 0 0 1 5.678 23.752 91.49 91.49 0 0 1-.483 23.5 57.275 57.275 0 0 1-7.446 18.966 25.29 25.29 0 0 1-13.476 8.779c-5.408.213-11.365-1.317-17.73-4.459a237.967 237.967 0 0 1-20.169-12.985 103.491 103.491 0 0 0-21.273-9.27 59.583 59.583 0 0 0-20.692 3.821c-6.624 3.836-12.985 7.822-19.045 11.413-6.145 3.6-12.052 5.973-17.706 6.865a31.955 31.955 0 0 1-16.724-4.746 87.888 87.888 0 0 1-15.889-15.53 226.794 226.794 0 0 1-14.654-21.519c-4.6-7.707-8.747-15.448-12.306-23.008a147.27 147.27 0 0 1-8.117-21.887 64.462 64.462 0 0 1-1.831-18.891 43.027 43.027 0 0 1 5.048-15.513 72.158 72.158 0 0 1 11.095-13.868c4.68-4.852 9.966-9.777 15.718-14.9 5.916-5.768 12.224-11.872 18.8-18.278C57.435 37.67 64.316 30.6 71.312 23.7a168.367 168.367 0 0 1 21.24-17.752C99.662 2.086 106.732 0 113.645 0" transform="rotate(60.6 59.149 314.48)" style="opacity:.28;stroke-dasharray:9 6;fill:none;stroke:#707070;stroke-linecap:round;stroke-width:2px"/>
        <path data-name="Path 427" d="M100.63 0a39.538 39.538 0 0 1 17.17 8.609 98.727 98.727 0 0 1 14.032 17.207 170.357 170.357 0 0 1 10.71 18.794 167.458 167.458 0 0 1 7.691 16.29c3.166 6.881 8.436 19.808 10.931 26.46 2.1 4.345 4.222 9.115 6.357 14.359a240.257 240.257 0 0 1 8.01 17.313 161.734 161.734 0 0 1 7.994 19.858 109.836 109.836 0 0 1 5 20.668 72.488 72.488 0 0 1-.074 19.219c-2.111 7.969-10.792 17.918-17.051 19.007-4.549-.507-9.638-2.365-15.153-5.449-5.6-3.256-11.537-7.151-17.73-11.275a98.261 98.261 0 0 0-19.17-7.732 63.9 63.9 0 0 0-19.056 2.725c-6.161 3.06-12.126 6.292-17.861 9.319a65.11 65.11 0 0 1-16.811 6.828 32.635 32.635 0 0 1-15.947-1.759 59.26 59.26 0 0 1-15.063-10.9A134.629 134.629 0 0 1 20.88 162.52 178.408 178.408 0 0 1 9.5 142.956a121.414 121.414 0 0 1-7.528-19.636 64.314 64.314 0 0 1-1.923-17.8 49.56 49.56 0 0 1 4.14-15.55 83.522 83.522 0 0 1 9.532-14.842C17.779 69.892 22.41 64.532 27.475 59c5.22-6.006 10.817-12.24 16.683-18.63 5.948-6.693 12.117-13.345 18.393-19.686A136.2 136.2 0 0 1 81.664 5a40.467 40.467 0 0 1 18.966-5" transform="rotate(64.64 57.471 307.339)" style="stroke-dasharray:1 5;opacity:.86;fill:none;stroke:#707070;stroke-linecap:round;stroke-width:2px"/>
        <path data-name="Path 428" d="M87.611.006A35.765 35.765 0 0 1 102.9 7.493a84.79 84.79 0 0 1 12.608 15.292 158.534 158.534 0 0 1 9.884 17.722 194.37 194.37 0 0 1 7.527 16.577q3.4 7.45 6 14.58c2 4.467 3.878 8.992 5.646 13.639a285.462 285.462 0 0 1 6.325 14.286 232.81 232.81 0 0 1 7.3 16.159 153.818 153.818 0 0 1 6.914 17.583 97.327 97.327 0 0 1 4.312 17.313c.794 7.977-1.448 20.766-4.484 24.775-3.96 2.176-15.079.188-21.944-3.625-4.786-2.815-9.941-6.079-15.374-9.475A95.579 95.579 0 0 0 110.561 156a69.189 69.189 0 0 0-17.321 1.784c-5.654 2.332-11.177 4.844-16.536 7.266a81.3 81.3 0 0 1-15.742 6.2 36.547 36.547 0 0 1-14.973.164 44.793 44.793 0 0 1-14.048-7.151 84 84 0 0 1-12.666-12.878 115.988 115.988 0 0 1-10.4-16.078 94.841 94.841 0 0 1-6.889-17.239 62.442 62.442 0 0 1-1.971-16.614A56.592 56.592 0 0 1 3.32 85.966a94.494 94.494 0 0 1 8.018-15.456c3.461-5.425 7.437-10.988 11.815-16.667 4.516-5.981 9.393-12.085 14.523-18.2C42.9 29.4 48.321 23.325 53.86 17.663A108.613 108.613 0 0 1 70.78 4.106a36.511 36.511 0 0 1 16.83-4.1" transform="rotate(68.68 55.796 300.224)" style="stroke-dasharray:1 11;opacity:.32;fill:none;stroke:#707070;stroke-linecap:round;stroke-width:2px"/>
        <path data-name="Path 429" d="M74.564 0c9.687 2.733 18.009 9.884 24.791 19.669a173.2 173.2 0 0 1 16.495 32.286 301.75 301.75 0 0 1 12 28.89 287.4 287.4 0 0 1 12.682 28.94c4.852 10.317 8.133 20.332 9.532 29.21.687 11.422-10.522 18.213-21.551 12.379a186.349 186.349 0 0 0-28.089-12.707c-10.44.679-20.749 3.215-30.551 6.325-9.892 4.541-19.44 6.906-28.26 6.267-8.992-1.628-17.3-6.48-24.35-13.811A75.2 75.2 0 0 1 1.7 109.794a59.544 59.544 0 0 1 .56-30.347C5.77 69.154 11.5 58.476 18.8 47.586A257.5 257.5 0 0 1 45.125 14.67C54.845 5.924 64.876.524 74.564 0" transform="rotate(72.72 53.99 293.29)" style="stroke-dasharray:10 8;opacity:.47;fill:none;stroke:#707070;stroke-linecap:round;stroke-width:2px"/>
        <path data-name="Path 430" d="M62.317 0C70.7 2.266 78.026 8.223 84.146 16.544a161.661 161.661 0 0 1 15.513 29.169 345.467 345.467 0 0 1 11.954 28.162c4.263 8.845 8.239 17.853 11.577 26.87 4.107 9.016 6.8 17.149 7.9 23.826.63 8.354-8.387 11.635-17.526 6.57a169.918 169.918 0 0 0-23.932-9.818 149.418 149.418 0 0 0-27.032 3.943c-8.845 3.412-17.452 5.343-25.413 5.114a36.894 36.894 0 0 1-21.715-9.417A53.055 53.055 0 0 1 1.7 98.437a58.834 58.834 0 0 1-.049-27.86 128.321 128.321 0 0 1 13.423-30.044A176.19 176.19 0 0 1 37.116 11.8C45.347 4.59 53.93.278 62.317 0" transform="rotate(76.76 52.378 286.105)" style="stroke-dasharray:10 3;opacity:.12;fill:none;stroke:#707070;stroke-linecap:round;stroke-width:2px"/>
        <path data-name="Path 431" d="M50.734 0c7.118 1.825 13.492 6.644 18.958 13.476a142.279 142.279 0 0 1 14.334 25.167 333.953 333.953 0 0 1 11.487 25.961c3.9 8.264 7.437 16.4 10.285 24.079 5.67 17.984-.393 26.477-7.863 22.509a175.272 175.272 0 0 0-20-7.2 194.145 194.145 0 0 0-23.31 1.955 71.265 71.265 0 0 1-22.214 3.314 32.327 32.327 0 0 1-18.851-6.726 38.725 38.725 0 0 1-11.9-18.131 54.926 54.926 0 0 1-.54-24.6A110.674 110.674 0 0 1 11.7 33.039 121.983 121.983 0 0 1 29.649 9.115C36.432 3.4 43.607.082 50.734 0" transform="rotate(80.8 50.813 278.896)" style="stroke-dasharray:5 4;opacity:.67;fill:none;stroke:#707070;stroke-linecap:round;stroke-width:2px"/>
        <path data-name="Path 432" d="M39.973 0c5.9 1.424 11.307 5.171 16.086 10.547A117.074 117.074 0 0 1 68.937 31.1a273.226 273.226 0 0 1 10.571 22.427c3.453 7.266 6.5 14.253 8.861 20.586 1.915 17.149-13.746 15.1-22.844 12.551-6.366-.074-12.968.131-19.44.4a70.07 70.07 0 0 1-18.728 1.293 29.281 29.281 0 0 1-15.8-5.367 29.587 29.587 0 0 1-9.974-14.465 47.832 47.832 0 0 1-.859-20.692A87.241 87.241 0 0 1 8.718 25.5 81.959 81.959 0 0 1 22.84 6.67C28.256 2.358 34.074-.064 39.973 0" transform="rotate(84.84 49.298 271.646)" style="stroke-dasharray:5 9;opacity:.49;fill:none;stroke:#707070;stroke-linecap:round;stroke-width:2px"/>
        <path data-name="Path 433" d="M29.948 0c9.409 2.946 17.8 12.126 24.235 23.466 7.036 11.962 13.009 24.472 16.5 34.471 4.721 12.666-4.7 15.767-18.295 11.4-10.064.638-21.011.671-30.511-1.211-9.348-1.018-17.023-6.36-20.615-16.244-2.831-9.892-.745-22.214 4.7-33.587C11.907 7.928 20.539.565 29.948 0" transform="rotate(88.9 47.66 264.49)" style="stroke-dasharray:4 2;opacity:.23;fill:none;stroke:#707070;stroke-linecap:round;stroke-width:2px"/>
        <path data-name="Path 434" d="M21.157 0c7.053 1.931 13.7 8.19 19 16.176A126.274 126.274 0 0 1 53.19 41.294c3.3 9.417-3.927 13.2-13.983 10.71a73.869 73.869 0 0 1-22.7-3.076A20.585 20.585 0 0 1 1.128 35.706c-2.275-7.315-.99-16.094 2.782-23.859C7.935 4.836 14.1.09 21.157 0" transform="rotate(92.92 46.368 257.038)" style="stroke-dasharray:5 2;opacity:.26;fill:none;stroke:#707070;stroke-linecap:round;stroke-width:2px"/>
        <path data-name="Path 435" d="M13.19 0c9.442 3.044 18.974 15.677 22.3 25.4 4.222 9.72.147 12.518-9.663 9.262-9.818.63-21.249-3.9-25.053-13.541C-2.216 11.471 3.749.581 13.19 0" transform="scale(-1) rotate(-83.05 -281.82 50.757)" style="stroke-dasharray:5 6;opacity:.62;fill:none;stroke:#707070;stroke-linecap:round;stroke-width:2px"/>
    </g>
</svg>
