<svg xmlns="http://www.w3.org/2000/svg" width="400" height="398.093" viewBox="0 0 400 398.093">
    <path data-name="Path 931" d="m402.256 313.92.018-278.655a32.722 32.722 0 0 0-16.128-28.1 32.418 32.418 0 0 0-16.708-4.736H35.153A32.912 32.912 0 0 0 2.274 35.308V313.92a32.539 32.539 0 0 0 23.761 31.424v42.064a13.132 13.132 0 0 0 13.115 13.115h130.578a13.128 13.128 0 0 0 13.115-13.115v-40.665h186.595a32.864 32.864 0 0 0 32.817-32.824zM11.453 35.271A23.677 23.677 0 0 1 35.1 11.62h334.35a23.856 23.856 0 0 1 23.632 23.693v56.976H154.964a4.38 4.38 0 0 1-3.092-1.265L120.637 60.26a13.482 13.482 0 0 0-9.521-3.905H61.938a13.586 13.586 0 0 0-13.573 13.573v17.955a4.412 4.412 0 0 1-4.406 4.406H11.453zM173.67 387.414a3.958 3.958 0 0 1-3.948 3.948H39.143a3.958 3.958 0 0 1-3.948-3.948V275.492a3.958 3.958 0 0 1 3.948-3.948H76.1v27.4a8.2 8.2 0 0 0 13.31 6.417l15.028-11.978 15.028 11.984a8.2 8.2 0 0 0 13.3-6.417v-27.4h36.955a3.954 3.954 0 0 1 3.948 3.948zM85.265 271.55H123.6v25.392l-14.062-11.2a8.179 8.179 0 0 0-10.218 0l-14.062 11.2V271.55zm84.458-9.167H39.143A13.132 13.132 0 0 0 26.028 275.5v60.2a23.454 23.454 0 0 1-14.594-21.774v-212.47h32.525a13.586 13.586 0 0 0 13.573-13.573V69.928a4.412 4.412 0 0 1 4.406-4.406h49.177a4.418 4.418 0 0 1 3.086 1.265l31.235 30.764a13.5 13.5 0 0 0 9.527 3.905h238.126v212.47a23.677 23.677 0 0 1-23.651 23.651h-186.6v-62.085a13.131 13.131 0 0 0-13.115-13.109z" transform="translate(-2.274 -2.429)" style="fill:#fff"/>
    <path data-name="Path 932" d="M77.132 49.506a21.237 21.237 0 1 0-21.267-21.267 21.289 21.289 0 0 0 21.267 21.267zm0-33.306a12.07 12.07 0 1 1-12.1 12.039 12.078 12.078 0 0 1 12.1-12.039z" transform="translate(271.643 21.103)" style="fill:#fff"/>
    <path data-name="Path 933" d="M67.041 49.506a21.237 21.237 0 1 0-21.267-21.267 21.289 21.289 0 0 0 21.267 21.267zm0-33.306a12.07 12.07 0 1 1-12.1 12.039 12.078 12.078 0 0 1 12.1-12.039z" transform="translate(220.066 21.103)" style="fill:#fff"/>
    <path data-name="Path 934" d="M56.945 49.506a21.237 21.237 0 1 0-21.261-21.267 21.294 21.294 0 0 0 21.261 21.267zm0-33.306a12.07 12.07 0 1 1-12.094 12.039A12.084 12.084 0 0 1 56.945 16.2z" transform="translate(168.493 21.103)" style="fill:#fff"/>
    <path data-name="Path 935" d="M53.114 59.342H16.165a6.715 6.715 0 0 0-6.7 6.7v17.287a6.716 6.716 0 0 0 6.7 6.71h36.949a6.717 6.717 0 0 0 6.71-6.71V66.046a6.712 6.712 0 0 0-6.71-6.704zm-2.457 21.524H18.634V68.509h32.023z" transform="translate(34.461 288.468)" style="fill:#fff"/>
    <path data-name="Path 936" d="M330.088 136.557V34.512a12.35 12.35 0 0 0-12.333-12.339H21.782A12.351 12.351 0 0 0 9.443 34.512v102.045A12.351 12.351 0 0 0 21.782 148.9h295.98a12.352 12.352 0 0 0 12.326-12.339zm-311.478 0V34.512a3.173 3.173 0 0 1 3.172-3.172h295.98a3.172 3.172 0 0 1 3.166 3.172v102.045a3.172 3.172 0 0 1-3.166 3.172H21.782a3.181 3.181 0 0 1-3.172-3.172z" transform="translate(34.369 98.488)" style="fill:#fff"/>
    <path data-name="Path 937" d="m68.836 43.78-10.475-1.522-4.681-9.5a9.343 9.343 0 0 0-16.751 0l-4.681 9.5-10.475 1.522a9.337 9.337 0 0 0-5.182 15.92l7.584 7.388-1.8 10.444a9.339 9.339 0 0 0 13.549 9.833l9.376-4.926 9.375 4.926a9.342 9.342 0 0 0 13.549-9.839l-1.8-10.438 7.582-7.388a9.332 9.332 0 0 0-5.17-15.92zM58.312 62.211a4.578 4.578 0 0 0-1.32 4.058l1.95 12.986-11.508-6.044a4.583 4.583 0 0 0-4.26 0l-11.751 5.873 2.2-12.815a4.578 4.578 0 0 0-1.32-4.058l-9.216-9.356 12.858-1.87a4.572 4.572 0 0 0 3.455-2.506l5.9-11.752c.1 0 .122.031.147.1l5.745 11.654a4.572 4.572 0 0 0 3.453 2.506L67.6 53.142z" transform="translate(56.469 126.016)" style="fill:#fff"/>
    <path data-name="Path 938" d="m80.506 43.78-10.475-1.522-4.681-9.5a9.343 9.343 0 0 0-16.751 0l-4.681 9.5-10.475 1.522a9.337 9.337 0 0 0-5.182 15.92l7.584 7.388-1.8 10.444A9.339 9.339 0 0 0 47.6 87.365l9.369-4.926 9.375 4.926a9.34 9.34 0 0 0 13.549-9.839l-1.8-10.438 7.583-7.388a9.329 9.329 0 0 0-5.17-15.92zM69.982 62.211a4.578 4.578 0 0 0-1.32 4.058l1.949 12.986L59.1 73.211a4.583 4.583 0 0 0-4.26 0l-11.747 5.873 2.2-12.815a4.578 4.578 0 0 0-1.32-4.058l-9.216-9.356 12.858-1.87a4.572 4.572 0 0 0 3.453-2.506l5.9-11.752c.1 0 .122.031.147.1l5.745 11.654a4.572 4.572 0 0 0 3.453 2.506l12.956 2.157z" transform="translate(116.118 126.016)" style="fill:#fff"/>
    <path data-name="Path 939" d="M92.176 43.78 81.7 42.258l-4.681-9.5a9.343 9.343 0 0 0-16.751 0l-4.681 9.5-10.474 1.522a9.337 9.337 0 0 0-5.182 15.92l7.584 7.388-1.8 10.444a9.338 9.338 0 0 0 13.549 9.833l9.375-4.926 9.369 4.926a9.339 9.339 0 0 0 13.549-9.839l-1.8-10.438 7.589-7.388a9.329 9.329 0 0 0-5.17-15.92zM81.652 62.211a4.578 4.578 0 0 0-1.32 4.058l1.949 12.986-11.5-6.044a4.566 4.566 0 0 0-4.26 0l-11.758 5.873 2.2-12.815a4.578 4.578 0 0 0-1.32-4.058l-9.216-9.356 12.858-1.87a4.572 4.572 0 0 0 3.453-2.506l5.9-11.752c.1 0 .122.031.147.1l5.745 11.654a4.572 4.572 0 0 0 3.453 2.506l12.956 2.157z" transform="translate(175.766 126.016)" style="fill:#fff"/>
    <path data-name="Path 940" d="m103.846 43.78-10.475-1.522-4.681-9.5a9.343 9.343 0 0 0-16.751 0l-4.681 9.5-10.475 1.522A9.337 9.337 0 0 0 51.6 59.7l7.584 7.388-1.8 10.444a9.338 9.338 0 0 0 13.549 9.833l9.375-4.926 9.369 4.926a9.339 9.339 0 0 0 13.549-9.839l-1.8-10.438 7.584-7.388a9.332 9.332 0 0 0-5.17-15.92zm-10.53 18.431A4.578 4.578 0 0 0 92 66.269l1.949 12.986-11.5-6.044a4.566 4.566 0 0 0-4.26 0l-11.762 5.873 2.2-12.815a4.578 4.578 0 0 0-1.32-4.058l-9.216-9.356 12.858-1.87a4.572 4.572 0 0 0 3.451-2.506l5.9-11.752c.1 0 .122.031.147.1L86.2 48.479a4.572 4.572 0 0 0 3.453 2.506l12.956 2.157z" transform="translate(235.414 126.016)" style="fill:#fff"/>
    <path data-name="Path 941" d="M182.584 47.221H41.988a4.583 4.583 0 1 0 0 9.167h140.6a4.583 4.583 0 1 0 0-9.167z" transform="translate(177.29 226.514)" style="fill:#fff"/>
    <path data-name="Path 942" d="M182.584 51.9H41.988a4.583 4.583 0 1 0 0 9.167h140.6a4.583 4.583 0 1 0 0-9.167z" transform="translate(177.29 250.45)" style="fill:#fff"/>
</svg>
